<svg id="Layer_1" viewBox="0 0 512 512" xmlns="http://www.w3.org/2000/svg" data-name="Layer 1"><circle cx="256" cy="256" fill="#ffb703" r="256"/><circle cx="256" cy="256" fill="#ffcc29" r="183.75"/><g fill="none" stroke-miterlimit="10"><circle cx="256" cy="256" r="183.75" stroke="#f99300" stroke-width="32.32"/><path d="m341.31 468.54a227.51 227.51 0 0 0 142.15-210.92" stroke="#ffcc29" stroke-linecap="round" stroke-width="19.39"/><path d="m142.26 59a226.34 226.34 0 0 1 113.74-30.46" stroke="#ffcc29" stroke-linecap="round" stroke-width="19.39"/><path d="m64.77 132.76a228.18 228.18 0 0 1 39.64-46.37" stroke="#ffcc29" stroke-linecap="round" stroke-width="19.39"/><path d="m56.22 364.84a226.58 226.58 0 0 1 -27.68-108.84" stroke="#ffcc29" stroke-linecap="round" stroke-width="19.39"/></g><path d="m303.53 237.67-44.85-64.91a3.25 3.25 0 0 0 -5.36 0l-44.85 64.91a3.26 3.26 0 0 1 -4 1.14l-63.64-28.27a3.27 3.27 0 0 0 -4.46 3.89l36.9 126.36a3.26 3.26 0 0 0 3.13 2.35h159.21a3.26 3.26 0 0 0 3.13-2.35l36.9-126.36a3.27 3.27 0 0 0 -4.46-3.89l-63.64 28.27a3.29 3.29 0 0 1 -4.01-1.14z" fill="#f99300"/></svg>