<?xml version="1.0" encoding="UTF-8"?>
<svg id="Layer_2" data-name="Layer 2" xmlns="http://www.w3.org/2000/svg" xmlns:xlink="http://www.w3.org/1999/xlink" viewBox="0 0 999.1 218.6">
  <defs>
    <style>
      .cls-1 {
        fill: url(#linear-gradient-2);
      }

      .cls-2 {
        fill: #fff;
      }

      .cls-3 {
        fill: url(#linear-gradient-6);
      }

      .cls-4 {
        fill: url(#linear-gradient-5);
      }

      .cls-5 {
        fill: url(#linear-gradient-7);
      }

      .cls-6 {
        fill: none;
        stroke: url(#linear-gradient-10);
      }

      .cls-6, .cls-7 {
        stroke-miterlimit: 10;
        stroke-width: 3px;
      }

      .cls-7 {
        fill: url(#linear-gradient-11);
        stroke: url(#linear-gradient-12);
      }

      .cls-8 {
        fill: url(#linear-gradient-9);
      }

      .cls-9 {
        fill: url(#linear-gradient-3);
      }

      .cls-10 {
        fill: url(#linear-gradient);
      }

      .cls-11 {
        fill: url(#linear-gradient-4);
      }

      .cls-12 {
        fill: url(#linear-gradient-8);
      }
    </style>
    <linearGradient id="linear-gradient" x1="70.95" y1="-135.49" x2="44.13" y2="410.87" gradientUnits="userSpaceOnUse">
      <stop offset="0" stop-color="#fbf395"/>
      <stop offset=".13" stop-color="#f9e77d"/>
      <stop offset=".24" stop-color="#f8dc66"/>
      <stop offset=".27" stop-color="#e6c85b"/>
      <stop offset=".34" stop-color="#c5a045"/>
      <stop offset=".4" stop-color="#ad8435"/>
      <stop offset=".45" stop-color="#9e732c"/>
      <stop offset=".49" stop-color="#996d29"/>
      <stop offset=".52" stop-color="#9d722c"/>
      <stop offset=".56" stop-color="#a98136"/>
      <stop offset=".6" stop-color="#bd9b46"/>
      <stop offset=".64" stop-color="#d9bf5d"/>
      <stop offset=".69" stop-color="#fae878"/>
      <stop offset=".77" stop-color="#fbf5ad"/>
      <stop offset=".83" stop-color="#fae878"/>
      <stop offset="1" stop-color="#a46427"/>
    </linearGradient>
    <linearGradient id="linear-gradient-2" x1="205.56" y1="-128.88" x2="178.73" y2="417.48" xlink:href="#linear-gradient"/>
    <linearGradient id="linear-gradient-3" x1="347.34" y1="-121.92" x2="320.52" y2="424.44" xlink:href="#linear-gradient"/>
    <linearGradient id="linear-gradient-4" x1="487.8" y1="-115.02" x2="460.98" y2="431.33" xlink:href="#linear-gradient"/>
    <linearGradient id="linear-gradient-5" x1="615.69" y1="-108.74" x2="588.86" y2="437.61" xlink:href="#linear-gradient"/>
    <linearGradient id="linear-gradient-6" x1="730.62" y1="-103.1" x2="703.79" y2="443.25" xlink:href="#linear-gradient"/>
    <linearGradient id="linear-gradient-7" x1="836.76" y1="-97.89" x2="809.94" y2="448.47" xlink:href="#linear-gradient"/>
    <linearGradient id="linear-gradient-8" x1="949.79" y1="-92.34" x2="922.96" y2="454.01" xlink:href="#linear-gradient"/>
    <linearGradient id="linear-gradient-9" x1="1.5" y1="201.93" x2="742.71" y2="201.93" xlink:href="#linear-gradient"/>
    <linearGradient id="linear-gradient-10" x1="1.5" y1="201.93" x2="742.71" y2="201.93" xlink:href="#linear-gradient"/>
    <linearGradient id="linear-gradient-11" x1="1.5" y1="201.93" x2="742.71" y2="201.93" xlink:href="#linear-gradient"/>
    <linearGradient id="linear-gradient-12" x1="0" y1="201.93" x2="744.21" y2="201.93" xlink:href="#linear-gradient"/>
  </defs>
  <g id="Layer_1-2" data-name="Layer 1">
    <g>
      <g>
        <path class="cls-10" d="m68.9,0c27,0,46.8,9.8,46.8,9.8v35s-24-13.8-47-10.8c-25.4,3-36.2,19.6-36.2,40s10.8,37.6,36.4,39.2c27,2,49.4-12.6,48.6-12l-.6,35.6s-18.4,11-48,11C24.7,147.8,1.5,118.2,1.5,74S24.5,0,68.9,0Z"/>
        <path class="cls-1" d="m195.7,0c44.2,0,67.2,29.6,67.2,74s-23,73.8-67.2,73.8-67.4-29.6-67.4-73.8S151.3,0,195.7,0Zm0,115c24,0,34.6-20.8,34.6-41s-10.6-41.2-34.6-41.2-34.6,20.8-34.6,41.2,10.8,41,34.6,41Z"/>
        <path class="cls-9" d="m275.9,4.6h44.2l46.8,96.6V4.6h32.6v140h-42.2l-48.8-100.8v100.8h-32.6V4.6Z"/>
        <path class="cls-11" d="m416.69,4.6h44.2l46.8,96.6V4.6h32.6v140h-42.2l-48.8-100.8v100.8h-32.6V4.6Z"/>
        <path class="cls-4" d="m557.49,4.6h36.6c48.4,0,66.2,13,66.2,47.8s-18,48.4-66.2,48.4h-4v43.8h-32.6V4.6Zm33.2,68.6c22.6,0,37.4.2,37.2-20.6-.2-21-14.8-20.6-37.2-20.6h-.6v41.2h.6Z"/>
        <path class="cls-3" d="m675.09,4.6h32.8v112.4h60.8v27.6h-93.6V4.6Z"/>
        <path class="cls-5" d="m781.49,4.6h93.6v27.4h-60.8v28.6h57v27.6h-57v28.8h60.8v27.6h-93.6V4.6Z"/>
        <path class="cls-12" d="m941.49,108.6l-19.8,36h-37.2l38.4-70-38.4-70h37.4l19.6,36,19.8-36h37.2l-38.4,70,38.6,70h-37.4l-19.8-36Z"/>
      </g>
      <g>
        <g>
          <line class="cls-8" x1="1.5" y1="201.93" x2="742.71" y2="201.93"/>
          <line class="cls-6" x1="1.5" y1="201.93" x2="742.71" y2="201.93"/>
        </g>
        <rect class="cls-7" x="1.5" y="201.51" width="741.21" height=".84"/>
      </g>
      <g>
        <path class="cls-2" d="m770.87,199.57c0-2.25.39-4.46,1.17-6.63.78-2.17,1.92-4.14,3.41-5.93,1.49-1.79,3.33-3.21,5.51-4.26,2.18-1.06,4.66-1.59,7.44-1.59,3.29,0,6.11.75,8.45,2.26s4.06,3.44,5.17,5.8l-2.86,1.77c-.8-1.63-1.8-2.92-3.02-3.87-1.21-.95-2.51-1.64-3.88-2.05s-2.73-.62-4.08-.62c-2.22,0-4.18.44-5.88,1.33-1.7.88-3.13,2.06-4.29,3.54-1.16,1.47-2.04,3.12-2.62,4.94-.59,1.82-.88,3.67-.88,5.54,0,2.05.35,4,1.04,5.88.69,1.87,1.66,3.53,2.91,4.97s2.71,2.58,4.39,3.43c1.68.85,3.51,1.27,5.49,1.27,1.39,0,2.81-.24,4.26-.73,1.46-.49,2.82-1.23,4.08-2.24,1.27-1,2.28-2.3,3.04-3.9l3.02,1.56c-.76,1.84-1.94,3.4-3.54,4.68-1.6,1.28-3.37,2.25-5.33,2.91-1.96.66-3.88.99-5.75.99-2.53,0-4.86-.55-6.97-1.64-2.12-1.09-3.94-2.55-5.49-4.37s-2.73-3.87-3.56-6.14-1.25-4.57-1.25-6.89Z"/>
        <path class="cls-2" d="m808.99,218.34v-36.92h3.64v36.92h-3.64Z"/>
        <path class="cls-2" d="m825.52,188.13v30.21h-3.64v-36.92h3.02l24.23,30.78v-30.73h3.64v36.87h-3.38l-23.87-30.21Z"/>
        <path class="cls-2" d="m886.83,215.12v3.22h-24.8v-36.92h24.34v3.22h-20.7v13.31h18.04v3.07h-18.04v14.09h21.16Z"/>
        <path class="cls-2" d="m926.4,218.34v-30.06l-13.37,23.35h-2.29l-13.42-23.35v30.06h-3.64v-36.92h3.74l14.4,25.27,14.51-25.27h3.69v36.92h-3.64Z"/>
        <path class="cls-2" d="m950.74,181.42h3.07l15.34,36.92h-3.85l-4.61-11.54h-16.88l-4.62,11.54h-3.9l15.45-36.92Zm8.8,22.52l-7.29-18.25-7.29,18.25h14.59Z"/>
        <path class="cls-2" d="m995.51,188.34c-.52-.59-1.13-1.12-1.82-1.59s-1.47-.88-2.34-1.22c-.87-.35-1.79-.62-2.78-.83-.99-.21-2.04-.31-3.14-.31-3.22,0-5.59.62-7.1,1.84-1.51,1.23-2.26,2.9-2.26,5.01,0,1.45.36,2.6,1.07,3.43.71.83,1.83,1.51,3.35,2.03s3.47,1.06,5.82,1.61c2.63.55,4.91,1.21,6.81,1.97s3.38,1.79,4.42,3.09c1.04,1.3,1.56,3.05,1.56,5.27,0,1.7-.33,3.17-.99,4.41s-1.58,2.28-2.76,3.12c-1.18.83-2.58,1.44-4.21,1.84-1.63.4-3.41.6-5.36.6s-3.74-.2-5.49-.6-3.41-.99-4.96-1.77c-1.56-.78-3.02-1.78-4.37-2.99l1.82-2.96c.66.69,1.45,1.34,2.37,1.95.92.61,1.94,1.15,3.07,1.64s2.34.86,3.64,1.12c1.3.26,2.64.39,4.03.39,2.95,0,5.24-.54,6.89-1.61,1.65-1.07,2.47-2.66,2.47-4.77,0-1.52-.42-2.74-1.25-3.66-.83-.92-2.08-1.67-3.74-2.26-1.66-.59-3.71-1.16-6.14-1.71-2.57-.59-4.73-1.25-6.5-1.97-1.77-.73-3.09-1.69-3.98-2.88-.88-1.19-1.33-2.78-1.33-4.75,0-2.28.56-4.21,1.69-5.79,1.12-1.57,2.68-2.77,4.65-3.58,1.97-.81,4.25-1.22,6.81-1.22,1.63,0,3.15.17,4.55.49s2.7.81,3.9,1.43c1.2.62,2.31,1.4,3.35,2.34l-1.77,2.91Z"/>
      </g>
    </g>
  </g>
</svg>