<svg height="512pt" viewBox="0 -46 512 512" width="512pt" xmlns="http://www.w3.org/2000/svg"><path d="m477.199219 169.199219-56.199219 190.800781-59.398438 33.601562h-150.601562l-120-33.601562s-44.199219-150.902344-54.101562-184.199219l-2.097657-6.601562c-1.199219-4.199219-.601562-8.699219 1.796875-12.597657l35.101563-14.402343 88 34.199219 66.902343-114h58.796876l66.902343 114 88-34.199219zm0 0" fill="#ffd400"/><g fill="#fdbf00"><path d="m477.199219 169.199219-56.199219 190.800781-59.398438 33.601562h-105.601562v-331.203124h29.398438l66.902343 114 88-34.199219zm0 0"/><path d="m91 360v45c0 8.398438 6.597656 15 15 15h300c8.402344 0 15-6.601562 15-15v-45zm0 0"/><path d="m256 0c-24.902344 0-45 20.097656-45 45 0 25.5 21 45 45 45 24.902344 0 45-20.398438 45-45 0-24.902344-20.097656-45-45-45zm0 0"/></g><path d="m467 180c-12.683594 0-23.746094-4.9375-31.902344-13.097656-8.660156-9.125-13.097656-20.050782-13.097656-31.902344 0-24.8125 20.1875-45 45-45s45 20.1875 45 45-20.1875 45-45 45zm0 0" fill="#ff9f00"/><path d="m45 180c-24.8125 0-45-20.1875-45-45s20.1875-45 45-45 45 20.1875 45 45c0 25.101562-20.207031 45-45 45zm0 0" fill="#fdbf00"/><path d="m256 90v-90c24.902344 0 45 20.097656 45 45 0 24.601562-20.097656 45-45 45zm0 0" fill="#ff9f00"/><path d="m421 360v45c0 8.398438-6.597656 15-15 15h-150v-60zm0 0" fill="#ff9f00"/><path d="m330.398438 225.597656c-1.800782-5.699218-6.597657-9.597656-12.296876-10.496094l-33.601562-4.800781-15-29.703125c-2.699219-4.796875-8.101562-7.5-13.5-7.5s-10.800781 2.703125-13.5 7.5l-15 29.703125-33.601562 4.800781c-5.699219.898438-10.496094 4.796876-12.296876 10.496094-1.5 5.402344 0 11.402344 4.199219 15.300782l24 23.101562-5.699219 32.402344c-.902343 5.398437 1.199219 11.097656 6 14.699218 4.5 3.300782 10.800782 3.597657 15.597657 1.199219l30.300781-15.601562 30.300781 15.601562c5.097657 2.699219 11.097657 2.097657 15.601563-1.199219 4.796875-3.601562 6.898437-9.300781 5.996094-14.703124l-5.699219-32.398438 24-23.101562c4.199219-3.898438 5.703125-9.898438 4.199219-15.300782zm0 0" fill="#ff9f00"/><path d="m286.300781 312.300781-30.300781-15.601562v-123.601563c5.398438 0 10.800781 2.703125 13.5 7.5l15 29.703125 33.601562 4.800781c5.699219.898438 10.496094 4.796876 12.296876 10.496094 1.5 5.402344 0 11.402344-4.199219 15.300782l-24 23.101562 5.699219 32.402344c.902343 5.398437-1.199219 11.097656-6 14.699218-4.5 3.296876-10.5 3.898438-15.597657 1.199219zm0 0" fill="#ff7816"/></svg>