<svg id="Solid" height="512" viewBox="0 0 64 64" width="512" xmlns="http://www.w3.org/2000/svg"><path d="m42 27h-32a7.0078 7.0078 0 0 0 -7 7v16a7.0078 7.0078 0 0 0 7 7h32a7.0078 7.0078 0 0 0 7-7v-16a7.0078 7.0078 0 0 0 -7-7zm-26 4h-6a3.0033 3.0033 0 0 0 -3 3v6a1 1 0 0 1 -2 0v-6a5.0059 5.0059 0 0 1 5-5h6a1 1 0 0 1 0 2zm4 0a1 1 0 1 1 1-1 1 1 0 0 1 -1 1zm22 4h-4a1 1 0 0 1 0-2h4a1 1 0 0 1 0 2z"/><path d="m16 11a7 7 0 1 0 7 7 7 7 0 0 0 -7-7zm-.7495 4.0947a3.0033 3.0033 0 0 0 -2.1558 2.1558 1 1 0 0 1 -.9677.75 1.0171 1.0171 0 0 1 -.251-.0317 1 1 0 0 1 -.7178-1.2188 5.0046 5.0046 0 0 1 3.5918-3.5918 1 1 0 1 1 .501 1.9365z"/><path d="m36 7a9 9 0 1 0 9 9 9.01 9.01 0 0 0 -9-9zm-3.7236 5.6675a4.9844 4.9844 0 0 0 -1.2764 3.3325 1 1 0 0 1 -2 0 6.9829 6.9829 0 0 1 1.7871-4.6675 1 1 0 0 1 1.4893 1.335zm2.7236-1.6675a1 1 0 1 1 1-1 1 1 0 0 1 -1 1z"/><path d="m61 32v19.9934a1 1 0 0 1 -1.4465.8948l-8.5535-4.2682v-13.23l8.55-4.28a.9953.9953 0 0 1 1.45.89z"/></svg>