<svg xmlns="http://www.w3.org/2000/svg" version="1.1" xmlns:xlink="http://www.w3.org/1999/xlink" width="512" height="512" x="0" y="0" viewBox="0 0 512 512" style="enable-background:new 0 0 512 512" xml:space="preserve" class=""><g><path d="M436.5 75.5c-99.7-99.7-261.4-99.7-361.1 0s-99.7 261.4 0 361.1 261.4 99.7 361.1 0 99.7-261.4 0-361.1zm-2.8 77.6h-57.3c-5.5-25.8-13.2-49.6-22.8-70.4-1.6-3.4-3.1-6.6-4.8-9.8 35.4 18 64.9 45.9 84.9 80.2zM461.4 256c0 17.8-2.3 35.6-6.9 52.9h-70.3c1.8-17.6 2.7-35.2 2.7-52.9s-.9-35.3-2.7-52.9h70.2c4.6 17.3 6.9 35.1 7 52.9zm-410.7 0c0-17.8 2.3-35.6 6.9-52.9h70.2c-3.5 35.1-3.5 70.6 0 105.7H57.6c-4.6-17.2-6.9-35-6.9-52.8zm124.4 0c0-17.7 1-35.3 2.9-52.9h155.9c2 17.6 2.9 35.2 2.9 52.9s-1 35.3-2.9 52.9H178.1c-2-17.6-3-35.2-3-52.9zM256 50.7c17.4 0 36.9 19.8 52.1 52.9 7.2 16 12.9 32.5 17 49.6H186.9c4.1-17 9.8-33.6 17-49.6 15.2-33.1 34.7-52.9 52.1-52.9zm-92.8 22.2c-1.6 3.2-3.2 6.5-4.8 9.8-9.6 20.9-17.2 44.7-22.8 70.4H78.3c20-34.3 49.5-62.2 84.9-80.2zm-84.9 286h57.3c5.5 25.8 13.2 49.6 22.8 70.5 1.6 3.4 3.1 6.6 4.8 9.8-35.4-18.1-64.9-46-84.9-80.3zM256 461.3c-17.4 0-36.9-19.8-52.1-52.9-7.2-16-12.9-32.6-17-49.6h138.2c-4.1 17-9.8 33.6-17 49.6-15.2 33.1-34.7 52.9-52.1 52.9zm92.8-22.2c1.6-3.2 3.2-6.4 4.8-9.8 9.6-20.9 17.2-44.7 22.8-70.5h57.3c-20 34.4-49.5 62.3-84.9 80.3z" fill="#23211e" opacity="1" data-original="#000000" class=""></path></g></svg>