<svg width="700" height="700" viewBox="0 0 700 700" fill="none" xmlns="http://www.w3.org/2000/svg">
<path d="M139.684 333.312L139.494 324.812C139.434 322.008 139.344 319.232 139.32 316.468L139.684 316.832C133.04 316.901 126.396 317.044 119.753 317.05L99.8219 317.133L100.487 316.468L100.416 333.312L99.8219 332.718C103.11 332.741 106.391 332.729 109.688 332.792L119.599 332.941L139.684 333.312ZM139.684 333.312L119.906 333.684L109.887 333.833C106.54 333.897 103.177 333.884 99.8219 333.906L99.2297 333.91L99.2271 333.312L99.1557 316.468L99.1531 315.798L99.8219 315.801L119.753 315.886C126.396 315.893 133.04 316.036 139.684 316.104L140.051 316.108L140.047 316.468C140.022 319.321 139.933 322.158 139.873 324.968L139.684 333.312Z" fill="#FABB1E"/>
<path d="M117.447 354.552L117.258 346.052C117.198 343.246 117.108 340.47 117.083 337.708L117.447 338.072C110.804 338.14 104.16 338.284 97.5161 338.29L77.5854 338.373L78.2515 337.708L78.1797 354.552L77.5854 353.958C80.8745 353.981 84.1552 353.968 87.4521 354.03L97.3625 354.18L117.447 354.552ZM117.447 354.552L97.6697 354.924L87.6505 355.073C84.3036 355.136 80.9406 355.124 77.5854 355.146L76.9937 355.15L76.9911 354.552L76.9193 337.708L76.9167 337.04L77.5854 337.042L97.5161 337.125C104.16 337.132 110.804 337.276 117.447 337.345L117.815 337.348L117.811 337.708C117.786 340.561 117.697 343.398 117.637 346.209L117.447 354.552Z" fill="#FABB1E"/>
<path d="M117.531 85.6904L117.341 77.1904C117.281 74.3864 117.192 71.609 117.167 68.8464L117.531 69.2104C110.887 69.2784 104.243 69.4224 97.5995 69.429L77.6687 69.513L78.3349 68.8464L78.263 85.6904L77.6687 85.097C80.9578 85.1197 84.2385 85.1077 87.5355 85.1704L97.4459 85.3197L117.531 85.6904ZM117.531 85.6904L97.7531 86.0624L87.7339 86.2117C84.387 86.2744 81.024 86.2624 77.6687 86.285L77.0771 86.2891L77.0745 85.6904L77.0026 68.8464L77 68.1784L77.6687 68.1811L97.5995 68.265C104.243 68.2717 110.887 68.4144 117.531 68.4824L117.898 68.4864L117.895 68.8464C117.87 71.6997 117.78 74.5371 117.72 77.3477L117.531 85.6904Z" fill="#FABB1E"/>
<path d="M621.501 85.6904L621.311 77.1904C621.251 74.3864 621.162 71.609 621.137 68.8464L621.501 69.2104C614.857 69.2784 608.214 69.4224 601.57 69.429L581.639 69.513L582.305 68.8464L582.233 85.6904L581.639 85.097C584.927 85.1197 588.209 85.1077 591.505 85.1704L601.415 85.3197L621.501 85.6904ZM621.501 85.6904L601.723 86.0624L591.703 86.2117C588.357 86.2744 584.994 86.2624 581.639 86.285L581.047 86.2891L581.045 85.6904L580.973 68.8464L580.97 68.1784L581.639 68.1811L601.57 68.265C608.214 68.2717 614.857 68.4144 621.501 68.4824L621.867 68.4864L621.865 68.8464C621.839 71.6997 621.75 74.5371 621.69 77.3477L621.501 85.6904Z" fill="#FABB1E"/>
<path d="M599.265 106.932L599.075 98.4303C599.014 95.6263 598.926 92.849 598.901 90.0863L599.265 90.4503C592.621 90.5183 585.977 90.6623 579.334 90.669L559.402 90.753L560.067 90.0863L559.998 106.93L559.402 106.337C562.691 106.36 565.973 106.348 569.269 106.409L579.179 106.56L599.265 106.932ZM599.265 106.932L579.487 107.302L569.467 107.452C566.119 107.514 562.758 107.501 559.402 107.525L558.811 107.529L558.809 106.93L558.737 90.0863L558.733 89.417L559.402 89.421L579.334 89.505C585.977 89.5117 592.621 89.6543 599.265 89.7223L599.631 89.7263L599.627 90.0863C599.603 92.9383 599.514 95.777 599.453 98.5877L599.265 106.932Z" fill="#FABB1E"/>
<path d="M474.855 357.134L474.664 348.633C474.604 345.829 474.516 343.053 474.489 340.29L474.855 340.653C468.209 340.722 461.567 340.865 454.923 340.872L434.992 340.956L435.657 340.29L435.585 357.134L434.992 356.54C438.281 356.564 441.561 356.55 444.859 356.613L454.769 356.762L474.855 357.134ZM474.855 357.134L455.077 357.506L445.057 357.654C441.709 357.718 438.348 357.705 434.992 357.729L434.401 357.733L434.399 357.134L434.327 340.29L434.323 339.621L434.992 339.624L454.923 339.708C461.567 339.714 468.209 339.858 474.855 339.926L475.221 339.929L475.217 340.29C475.193 343.142 475.103 345.981 475.043 348.79L474.855 357.134Z" fill="#BCBCBC"/>
<path d="M587.531 387.31L587.341 378.81C587.281 376.005 587.192 373.229 587.167 370.466L587.531 370.83C580.887 370.898 574.244 371.042 567.599 371.049L547.669 371.132L548.335 370.466L548.263 387.31L547.669 386.717C550.957 386.74 554.239 386.726 557.535 386.789L567.445 386.938L587.531 387.31ZM587.531 387.31L567.753 387.682L557.733 387.832C554.387 387.894 551.024 387.882 547.669 387.905L547.077 387.909L547.075 387.31L547.003 370.466L547 369.798L547.669 369.801L567.599 369.884C574.244 369.89 580.887 370.034 587.531 370.104L587.897 370.106L587.895 370.466C587.869 373.32 587.78 376.157 587.72 378.968L587.531 387.31Z" fill="#FABB1E"/>
<path d="M282.819 135.781L282.63 127.28C282.57 124.476 282.481 121.698 282.455 118.936L282.819 119.3C276.175 119.369 269.531 119.512 262.889 119.518L242.958 119.602L243.623 118.936L243.551 135.781L242.958 135.186C246.246 135.209 249.527 135.197 252.823 135.26L262.734 135.409L282.819 135.781ZM282.819 135.781L263.042 136.153L253.022 136.302C249.675 136.365 246.313 136.352 242.958 136.376L242.366 136.378L242.363 135.781L242.291 118.936L242.289 118.268L242.958 118.27L262.889 118.354C269.531 118.361 276.175 118.505 282.819 118.573L283.186 118.576L283.183 118.936C283.158 121.789 283.069 124.628 283.009 127.437L282.819 135.781Z" fill="#FABB1E"/>
<path d="M582.479 223.09C576.545 226.274 569.157 224.044 565.975 218.108C562.791 212.172 565.014 204.774 570.951 201.59C576.887 198.408 584.29 200.642 587.474 206.578C590.657 212.514 588.418 219.906 582.479 223.09ZM595.083 232.488L602.931 219.834L599.057 217.433C597.917 216.726 597.299 215.438 597.414 214.102C597.477 213.365 597.501 212.621 597.483 211.876C597.454 210.54 598.153 209.296 599.331 208.664L603.349 206.509L596.309 193.382L592.291 195.536C591.113 196.168 589.69 196.061 588.593 195.297C587.981 194.872 587.35 194.48 586.699 194.125C585.523 193.481 584.791 192.253 584.834 190.913L584.978 186.357L570.094 185.893L569.957 190.468C569.917 191.809 569.094 192.976 567.881 193.548C567.551 193.702 567.226 193.868 566.902 194.041C566.579 194.214 566.261 194.396 565.95 194.584C564.807 195.274 563.387 195.314 562.253 194.612L558.349 192.193L550.499 204.848L554.382 207.257C555.522 207.965 556.138 209.254 556.022 210.59C555.958 211.326 555.933 212.065 555.949 212.808C555.977 214.142 555.278 215.386 554.101 216.017L550.083 218.172L557.123 231.3L561.142 229.144C562.318 228.513 563.741 228.618 564.837 229.381C565.446 229.804 566.077 230.193 566.725 230.546C567.902 231.189 568.635 232.417 568.593 233.757L568.453 238.325L583.337 238.786L583.478 234.218C583.521 232.881 584.339 231.718 585.549 231.148C585.879 230.992 586.207 230.825 586.534 230.65C586.859 230.477 587.177 230.296 587.487 230.108C588.637 229.414 590.063 229.374 591.203 230.082L595.083 232.488Z" fill="#BCBCBC"/>
<path d="M136.397 406.994C130.461 410.178 123.074 407.949 119.891 402.013C116.708 396.077 118.931 388.68 124.868 385.496C130.804 382.313 138.206 384.548 141.39 390.484C144.573 396.42 142.333 403.812 136.397 406.994ZM148.999 416.392L156.849 403.738L152.973 401.337C151.833 400.632 151.216 399.342 151.33 398.006C151.393 397.269 151.417 396.526 151.4 395.781C151.371 394.444 152.07 393.2 153.248 392.568L157.265 390.414L150.224 377.286L146.208 379.44C145.03 380.073 143.607 379.966 142.51 379.202C141.898 378.776 141.266 378.385 140.616 378.03C139.44 377.385 138.708 376.158 138.75 374.818L138.895 370.261L124.011 369.798L123.874 374.372C123.833 375.713 123.011 376.881 121.798 377.453C121.469 377.608 121.143 377.772 120.819 377.946C120.495 378.12 120.178 378.301 119.867 378.489C118.723 379.178 117.304 379.22 116.169 378.516L112.266 376.098L104.416 388.753L108.299 391.162C109.438 391.869 110.055 393.16 109.939 394.496C109.875 395.23 109.85 395.97 109.866 396.713C109.893 398.049 109.195 399.29 108.018 399.922L104 402.077L111.039 415.204L115.059 413.049C116.235 412.418 117.657 412.524 118.754 413.285C119.363 413.709 119.994 414.098 120.641 414.452C121.818 415.094 122.551 416.322 122.51 417.662L122.37 422.229L137.253 422.692L137.395 418.122C137.437 416.785 138.256 415.624 139.466 415.052C139.796 414.896 140.125 414.73 140.452 414.554C140.775 414.382 141.093 414.201 141.405 414.012C142.554 413.318 143.98 413.278 145.12 413.986L148.999 416.392Z" fill="#BCBCBC"/>
<path d="M273.149 165.265C273.149 169.985 269.326 173.806 264.607 173.806C259.887 173.806 256.057 169.985 256.057 165.265C256.057 160.546 259.887 156.716 264.607 156.716C269.326 156.716 273.149 160.546 273.149 165.265ZM283.122 160.597L277.909 151.561L275.143 153.158C274.33 153.629 273.33 153.584 272.543 153.07C272.109 152.788 271.658 152.526 271.193 152.29C270.357 151.866 269.821 151.022 269.821 150.085V146.893H259.385V150.085C259.385 151.022 258.849 151.866 258.014 152.29C257.549 152.526 257.097 152.788 256.662 153.07C255.875 153.584 254.875 153.629 254.062 153.158L251.297 151.561L246.083 160.597L248.861 162.197C249.675 162.665 250.123 163.56 250.075 164.498C250.062 164.752 250.055 165.009 250.055 165.265C250.055 165.522 250.062 165.778 250.075 166.033C250.123 166.968 249.678 167.857 248.869 168.325L246.083 169.934L251.297 178.97L254.07 177.372C254.883 176.902 255.883 176.948 256.67 177.462C257.103 177.745 257.553 178.005 258.015 178.241C258.849 178.666 259.385 179.509 259.385 180.445V183.638H269.821V180.445C269.821 179.509 270.357 178.666 271.19 178.241C271.654 178.005 272.102 177.745 272.535 177.462C273.322 176.949 274.322 176.902 275.135 177.372L277.909 178.97L283.122 169.934L280.349 168.333C279.537 167.866 279.091 166.976 279.138 166.04C279.151 165.784 279.158 165.525 279.158 165.265C279.158 165.009 279.151 164.752 279.138 164.498C279.09 163.56 279.538 162.665 280.353 162.194L283.122 160.597Z" fill="#BCBCBC"/>
<path d="M134.615 443.097C117.191 460.156 114.266 486.548 117.938 509.664C118.033 510.189 118.844 510.045 118.844 509.552C118.844 504.29 118.685 499.076 118.701 493.876C118.796 493.638 118.875 493.416 118.971 493.177C123.518 489.87 127.699 486.134 130.291 481.014C133.2 475.292 134.344 468.837 136.57 462.86C136.778 462.286 136.168 462.454 135.768 462.75C125.169 470.566 121.791 478.98 118.748 490.22C118.891 484.385 119.336 478.55 120.593 472.716C122.882 462.048 127.414 451.476 135.076 443.558C135.363 443.257 134.917 442.796 134.615 443.097Z" fill="#BCBCBC"/>
<path d="M137.89 445.086C140.887 445.188 142.767 449.98 145.103 451.376C146.339 452.121 147.542 452.076 148.411 450.857C150.726 447.625 147.549 443.64 144.563 441.41C146.699 442.288 148.471 443.832 150.773 444.269C152.168 444.525 153.252 444.008 153.578 442.59C154.593 438.185 149.067 436.225 145.276 436.133C147.114 434.856 152.382 431.381 149.583 429.674C146.747 427.96 140.567 432.926 138.55 434.561C135.587 436.965 132.053 440.558 131.92 444.318C131.746 448.708 135.583 446.006 137.89 445.086Z" fill="#FABB1E"/>
<path d="M146.645 451.868C146.153 451.868 145.631 451.694 145.103 451.376C143.372 450.341 141.892 447.441 140.021 445.968C139.799 445.793 139.573 445.638 139.339 445.51C138.884 445.258 138.403 445.104 137.89 445.086C136.552 445.62 134.697 446.754 133.411 446.754C133.057 446.754 132.745 446.668 132.499 446.46C132.316 446.304 132.169 446.08 132.068 445.772C131.968 445.465 131.914 445.077 131.914 444.59C131.914 444.502 131.916 444.413 131.92 444.318C132.053 440.558 135.587 436.965 138.55 434.561C140.277 433.161 145.056 429.32 148.175 429.32C148.698 429.32 149.175 429.428 149.583 429.674C150.152 430.021 150.387 430.441 150.386 430.9C150.383 432.702 146.741 435.114 145.276 436.133C148.756 436.217 153.697 437.876 153.7 441.554C153.7 441.884 153.661 442.229 153.578 442.59C153.305 443.777 152.502 444.332 151.429 444.332C151.22 444.332 151.001 444.312 150.773 444.269C148.471 443.832 146.699 442.288 144.563 441.41C146.832 443.104 149.211 445.812 149.207 448.432C149.206 449.261 148.967 450.081 148.411 450.857C147.913 451.556 147.306 451.868 146.645 451.868Z" fill="#F4AC12"/>
<path d="M137.022 445.825C140.855 444.084 148.218 446.592 148.844 445.141C150.114 442.188 144.229 440.162 141.054 439.77C143.979 438.978 149.583 437.714 149.41 434.894C149.2 431.45 140.815 434.413 136.57 437.666C131.223 441.766 131.258 445.722 132.143 446.514C133.355 447.601 136.39 446.113 137.022 445.825Z" fill="#FABB1E"/>
<path d="M94.9323 441.409C112.993 457.793 116.92 484.053 114.129 507.293C114.054 507.82 113.239 507.708 113.219 507.216C113.019 501.957 112.98 496.741 112.766 491.545C112.661 491.312 112.573 491.093 112.469 490.857C107.8 487.725 103.48 484.15 100.695 479.134C97.5703 473.526 96.1812 467.12 93.7297 461.23C93.5016 460.666 94.1172 460.812 94.5281 461.092C105.417 468.498 109.113 476.777 112.58 487.893C112.214 482.069 111.547 476.256 110.071 470.473C107.378 459.9 102.447 449.508 94.4891 441.886C94.1912 441.596 94.6188 441.118 94.9323 441.409Z" fill="#BCBCBC"/>
<path d="M91.736 443.521C88.7443 443.736 87.0484 448.596 84.7672 450.081C83.5604 450.87 82.3563 450.87 81.4417 449.688C79.0052 446.546 82.0276 442.442 84.9271 440.101C82.826 441.06 81.1146 442.669 78.8302 443.194C77.4458 443.502 76.3437 443.028 75.9641 441.622C74.7828 437.26 80.2292 435.092 84.0135 434.854C82.1292 433.646 76.7333 430.377 79.4641 428.564C82.2333 426.744 88.5984 431.47 90.6751 433.029C93.7281 435.318 97.3953 438.773 97.6719 442.526C98.0125 446.906 94.0755 444.353 91.736 443.521Z" fill="#FABB1E"/>
<path d="M83.1667 450.632C82.5359 450.632 81.9448 450.338 81.4417 449.688C80.8135 448.878 80.5479 448.004 80.55 447.113C80.5552 444.548 82.775 441.84 84.9271 440.101C82.826 441.06 81.1146 442.669 78.8302 443.194C78.5625 443.253 78.3052 443.284 78.062 443.284C77.0469 443.284 76.2703 442.756 75.9641 441.622C75.8521 441.209 75.8 440.816 75.8 440.441C75.7995 436.866 80.5875 435.069 84.0135 434.854C82.4969 433.882 78.7068 431.576 78.7073 429.766C78.7073 429.328 78.9307 428.918 79.4641 428.564C79.9 428.277 80.425 428.153 81.0083 428.153C84.1307 428.153 88.9251 431.716 90.6751 433.029C93.7281 435.318 97.3953 438.773 97.6719 442.526C97.686 442.704 97.6921 442.87 97.6927 443.025C97.6927 443.558 97.6151 443.964 97.4755 444.265C97.3489 444.288 97.2625 444.409 97.2412 444.621C97.2193 444.645 97.1969 444.666 97.174 444.688C96.9172 444.924 96.5781 445.018 96.1869 445.018C94.9041 445.018 93.0631 443.993 91.736 443.521C88.7443 443.736 87.0484 448.596 84.7672 450.081C84.2245 450.436 83.6823 450.632 83.1667 450.632Z" fill="#F4AC12"/>
<path d="M92.6303 444.226C88.7344 442.632 81.4719 445.417 80.7912 443.99C79.4109 441.089 85.213 438.841 88.3719 438.328C85.4188 437.649 79.7709 436.6 79.8359 433.774C79.9146 430.324 88.4068 432.966 92.7713 436.056C98.2708 439.95 98.386 443.904 97.5333 444.729C96.3625 445.862 93.2735 444.489 92.6303 444.226Z" fill="#FABB1E"/>
<path d="M113.401 484.68C114.735 493.313 116.388 502.241 119.009 510.585C119.259 511.345 120.387 511.15 120.271 510.329C119.085 502.346 116.922 494.51 115.735 486.528C114.531 478.45 113.886 470.262 114.349 462.092C115.109 448.64 118.763 434.329 127.541 423.804C127.733 423.554 127.324 423.202 127.125 423.433C109.551 443.925 112.347 469.048 112.363 471.3C109.875 462.817 107.311 453.093 97.9 444.454C97.4943 444.082 97.1771 444.26 97.2448 444.892C98.9276 460.626 103.302 468.842 112.425 477.254C112.684 479.748 113.005 482.229 113.401 484.68Z" fill="#BCBCBC"/>
<path d="M127.699 426.161C130.86 424.757 135.221 428.782 138.349 429.057C140.006 429.208 141.232 428.553 141.52 426.853C142.296 422.334 136.994 419.797 132.773 418.986C133.787 418.924 134.796 418.989 135.801 419.054C137.427 419.158 139.042 419.264 140.655 418.828C142.231 418.39 143.096 417.309 142.719 415.674C141.555 410.593 134.836 411.34 130.856 413.152C132.12 410.902 135.836 404.648 132.073 404.284C128.268 403.932 124.355 412.196 123.086 414.908C121.222 418.894 119.364 424.401 121.119 428.369C123.148 433.01 125.769 428.277 127.699 426.161Z" fill="#FABB1E"/>
<path d="M123.127 430.34C123.081 430.34 123.034 430.337 122.988 430.333C122.734 430.306 122.482 430.205 122.235 430.012C121.849 429.709 121.475 429.184 121.119 428.369C120.621 427.245 120.415 425.998 120.415 424.697C120.417 421.404 121.75 417.765 123.086 414.908C124.329 412.252 128.107 404.273 131.836 404.273C131.916 404.273 131.995 404.277 132.073 404.284C133.275 404.4 133.714 405.117 133.714 406.112C133.713 408.233 131.716 411.621 130.856 413.152C132.578 412.368 134.811 411.784 136.886 411.784C139.608 411.784 142.058 412.79 142.719 415.674C142.778 415.93 142.807 416.172 142.807 416.4C142.808 417.63 141.985 418.458 140.655 418.828C139.753 419.072 138.849 419.146 137.944 419.146C137.232 419.146 136.517 419.1 135.801 419.054C135.085 419.008 134.367 418.961 133.645 418.961C133.355 418.961 133.064 418.969 132.773 418.986C136.714 419.744 141.596 422.005 141.596 425.978C141.596 426.261 141.571 426.553 141.52 426.853C141.325 428.008 140.697 428.68 139.795 428.945C139.783 428.949 139.77 428.952 139.757 428.956C139.464 429.038 139.141 429.078 138.795 429.078C138.651 429.078 138.502 429.072 138.349 429.057C138.05 429.03 137.74 428.97 137.419 428.884C134.891 428.196 131.791 425.865 129.172 425.865C128.66 425.865 128.166 425.954 127.699 426.161C127.102 426.816 126.44 427.721 125.748 428.521C124.893 429.51 123.996 430.34 123.127 430.34Z" fill="#F4AC12"/>
<path d="M127.171 427.365C130.271 423.628 139.172 422.524 139.092 420.704C138.922 417.001 131.798 417.861 128.306 419.052C130.942 416.758 136.12 412.628 134.522 409.788C132.57 406.318 125.36 413.613 122.595 419.126C119.111 426.073 121.139 430.158 122.455 430.537C124.26 431.053 126.659 427.982 127.171 427.365Z" fill="#FABB1E"/>
<path d="M101.839 489.414L94.088 548.636H141.253C140.281 543.387 131.503 489.346 131.503 489.346L101.839 489.414Z" fill="#FABB1E"/>
<path d="M74 548.836L142.875 548.512L211.751 548.393L349.501 548.17L487.251 548.392L556.128 548.509L625.003 548.836L556.128 549.161L487.251 549.279L349.501 549.501L211.751 549.277L142.875 549.16L74 548.836Z" fill="#23211E"/>
<path d="M548.244 645.9C548.244 661.419 459.263 674 349.501 674C239.739 674 150.759 661.419 150.759 645.9C150.759 630.38 239.739 617.798 349.501 617.798C459.263 617.798 548.244 630.38 548.244 645.9Z" fill="#23211E"/>
<path d="M173.505 236.884L205.84 228.667L195.145 186.583L173.505 236.884ZM218.303 296.625L210.024 264.052L144.641 280.669L136 246.669L188.251 127.587L214.167 121L239.364 220.147L260.288 214.828L268.988 249.067L248.067 254.384L256.344 286.956L218.303 296.625Z" fill="#BCBCBC"/>
<path d="M374.115 200.897C374.115 189.452 371.825 180.168 367.246 173.053C362.666 165.938 356.779 162.381 349.585 162.381C342.059 162.381 336.05 165.938 331.554 173.053C327.054 180.168 324.807 189.452 324.807 200.897C324.807 212.346 327.054 221.588 331.554 228.617C336.05 235.652 342.059 239.166 349.585 239.166C356.779 239.166 362.666 235.652 367.246 228.617C371.825 221.588 374.115 212.346 374.115 200.897ZM413.613 200.897C413.613 211.69 411.975 221.626 408.707 230.702C405.434 239.78 400.937 247.63 395.213 254.253C389.486 260.877 382.741 266.029 374.975 269.709C367.205 273.388 358.741 275.228 349.585 275.228C340.423 275.228 331.921 273.388 324.071 269.709C316.221 266.029 309.433 260.877 303.71 254.253C297.983 247.63 293.529 239.78 290.339 230.702C287.15 221.626 285.557 211.69 285.557 200.897C285.557 190.102 287.15 180.168 290.339 171.09C293.529 162.014 297.983 154.164 303.71 147.54C309.433 140.917 316.221 135.726 324.071 131.962C331.921 128.202 340.423 126.32 349.585 126.32C358.741 126.32 367.205 128.202 374.975 131.962C382.741 135.726 389.486 140.917 395.213 147.54C400.937 154.164 405.434 162.014 408.707 171.09C411.975 180.168 413.613 190.102 413.613 200.897Z" fill="#BCBCBC"/>
<path d="M466.734 230.72L499.669 236.056L506.613 193.193L466.734 230.72ZM484.043 303.358L489.417 270.182L422.823 259.393L428.434 224.764L523.778 136.33L550.171 140.608L533.813 241.588L555.123 245.04L549.474 279.912L528.163 276.46L522.787 309.636L484.043 303.358Z" fill="#BCBCBC"/>
<path d="M242.324 57.7994C242.324 60.5258 242.734 63.1642 243.555 65.7101C244.377 68.2582 245.564 70.5093 247.12 72.4655C248.676 74.4217 250.582 75.9928 252.842 77.1767C255.099 78.3627 257.668 78.9546 260.545 78.9546C263.478 78.9546 266.075 78.3473 268.334 77.1326C270.592 75.918 272.501 74.3029 274.056 72.2873C275.61 70.2739 276.784 68.0074 277.575 65.4879C278.369 62.9705 278.765 60.407 278.765 57.7994C278.765 55.0731 278.338 52.437 277.488 49.8866C276.636 47.3407 275.434 45.0875 273.878 43.1313C272.324 41.1751 270.418 39.6216 268.158 38.4642C265.898 37.309 263.36 36.7324 260.545 36.7324C257.61 36.7324 254.999 37.3397 252.709 38.5543C250.421 39.769 248.515 41.3687 246.989 43.3535C245.462 45.3405 244.305 47.5916 243.512 50.1089C242.719 52.6307 242.324 55.1919 242.324 57.7994ZM260.455 89.7984C255.88 89.7984 251.726 88.8962 248 87.0874C244.274 85.2809 241.076 82.8824 238.406 79.8876C235.735 76.8972 233.667 73.4733 232.201 69.6225C230.734 65.7695 230 61.8307 230 57.7994C230 53.5922 230.778 49.5632 232.334 45.7102C233.887 41.8594 236.029 38.4509 238.757 35.4869C241.487 32.5251 244.73 30.1685 248.484 28.4213C252.238 26.672 256.317 25.7984 260.719 25.7984C265.238 25.7984 269.361 26.7313 273.087 28.5973C276.813 30.4655 279.996 32.908 282.637 35.9314C285.278 38.9548 287.331 42.3919 288.799 46.2427C290.266 50.0957 291 54.0059 291 57.9777C291 62.185 290.235 66.1986 288.712 70.0208C287.185 73.843 285.071 77.2207 282.374 80.1539C279.674 83.0871 276.447 85.4305 272.692 87.1777C268.934 88.9248 264.857 89.7984 260.455 89.7984Z" fill="#BCBCBC"/>
<path d="M308.317 65.8433C308.317 67.9068 308.631 69.7778 309.254 71.4562C309.879 73.1346 310.741 74.5942 311.844 75.8328C312.944 77.0691 314.239 78.0276 315.725 78.7038C317.212 79.3822 318.819 79.7213 320.546 79.7213C322.27 79.7213 323.876 79.3822 325.365 78.7038C326.852 78.0276 328.147 77.0691 329.247 75.8328C330.347 74.5942 331.211 73.1215 331.834 71.4124C332.459 69.7034 332.773 67.8193 332.773 65.7536C332.773 63.7535 332.459 61.8956 331.834 60.1844C331.211 58.4775 330.347 57.0048 329.247 55.7662C328.147 54.5277 326.852 53.5713 325.365 52.8929C323.876 52.2146 322.27 51.8754 320.546 51.8754C318.819 51.8754 317.212 52.2299 315.725 52.9368C314.239 53.6436 312.944 54.6174 311.844 55.8538C310.741 57.0923 309.879 58.565 309.254 60.274C308.631 61.9831 308.317 63.841 308.317 65.8433ZM320.546 89.7984C316.735 89.7984 313.315 89.1507 310.282 87.8552C307.248 86.5598 304.672 84.8048 302.56 82.5946C300.448 80.3844 298.826 77.8351 297.697 74.9487C296.566 72.0624 296 69.025 296 65.8433C296 62.6024 296.566 59.5389 297.697 56.6503C298.826 53.7618 300.448 51.2123 302.56 49.0044C304.672 46.7942 307.248 45.0414 310.282 43.7437C313.315 42.4482 316.735 41.7984 320.546 41.7984C324.353 41.7984 327.76 42.4482 330.765 43.7437C333.767 45.0414 336.328 46.7942 338.44 49.0044C340.552 51.2123 342.174 53.7618 343.303 56.6503C344.434 59.5389 345 62.6024 345 65.8433C345 69.025 344.434 72.0624 343.303 74.9487C342.174 77.8351 340.568 80.3844 338.484 82.5946C336.401 84.8048 333.845 86.5598 330.809 87.8552C327.776 89.1507 324.353 89.7984 320.546 89.7984Z" fill="#BCBCBC"/>
<path d="M376.285 79.7523C378.016 79.7523 379.617 79.3712 381.089 78.6025C382.561 77.836 383.816 76.8045 384.853 75.5058C385.89 74.2093 386.698 72.7047 387.277 70.9942C387.853 69.2838 388.142 67.5142 388.142 65.6877C388.142 63.7385 387.825 61.9252 387.191 60.2454C386.555 58.5634 385.676 57.1048 384.549 55.8652C383.424 54.6278 382.098 53.6532 380.568 52.9458C379.038 52.2385 377.38 51.8836 375.593 51.8836C374.496 51.8836 373.371 52.0763 372.216 52.4596C371.061 52.8429 369.994 53.3882 369.012 54.0956C368.031 54.803 367.152 55.6309 366.373 56.5726C365.595 57.5165 365.001 58.5503 364.598 59.6694V70.5518C365.638 73.2062 367.223 75.4028 369.357 77.1418C371.494 78.8829 373.803 79.7523 376.285 79.7523ZM380.178 89.8376C376.6 89.8376 373.484 89.0273 370.832 87.4045C368.177 85.7838 366.098 83.5872 364.598 80.8145V107.798H353V42.5955H363.126V50.5564C364.802 47.8451 366.964 45.7054 369.621 44.1417C372.274 42.5824 375.333 41.7984 378.794 41.7984C381.854 41.7984 384.68 42.4335 387.277 43.7016C389.874 44.9696 392.111 46.68 393.985 48.8307C395.86 50.9857 397.33 53.5218 398.399 56.4412C399.466 59.3606 400 62.442 400 65.6877C400 69.0472 399.509 72.2031 398.53 75.151C397.549 78.101 396.177 80.6678 394.418 82.8491C392.657 85.0326 390.566 86.743 388.142 87.9804C385.719 89.2178 383.064 89.8376 380.178 89.8376Z" fill="#BCBCBC"/>
<path d="M425.586 89.7984C421.765 89.7984 418.028 89.1803 414.381 87.9462C410.732 86.7121 407.606 84.9451 405 82.6517L409.341 75.2407C412.121 77.2415 414.828 78.7551 417.465 79.7839C420.099 80.8148 422.72 81.3281 425.326 81.3281C427.639 81.3281 429.465 80.8868 430.798 80.0044C432.129 79.122 432.795 77.8574 432.795 76.2127C432.795 74.5658 432.013 73.3579 430.45 72.5934C428.886 71.829 426.338 70.9466 422.806 69.9462C419.853 69.1228 417.333 68.3299 415.248 67.5654C413.164 66.8009 411.483 65.9316 410.212 64.9619C408.937 63.9899 408.01 62.8738 407.432 61.6091C406.851 60.3445 406.563 58.8286 406.563 57.0659C406.563 54.7136 407.01 52.5949 407.909 50.7121C408.806 48.8294 410.066 47.2261 411.687 45.9025C413.308 44.5789 415.207 43.5654 417.379 42.8599C419.548 42.1522 421.907 41.7984 424.457 41.7984C427.874 41.7984 431.071 42.3007 434.055 43.3011C437.036 44.3015 439.773 45.9178 442.263 48.1522L437.571 55.299C435.255 53.5363 433.013 52.2411 430.839 51.4176C428.669 50.5942 426.513 50.1813 424.371 50.1813C422.401 50.1813 420.75 50.5942 419.419 51.4176C418.086 52.2411 417.419 53.5647 417.419 55.3885C417.419 56.212 417.579 56.8869 417.899 57.4177C418.215 57.9463 418.725 58.418 419.419 58.8287C420.114 59.2415 421.025 59.6389 422.154 60.019C423.285 60.4034 424.687 60.8009 426.366 61.2116C429.493 62.035 432.172 62.8585 434.402 63.6819C436.631 64.5075 438.453 65.4468 439.874 66.5039C441.293 67.5654 442.334 68.7864 443.002 70.1668C443.665 71.5494 444 73.2116 444 75.1511C444 79.6834 442.349 83.2567 439.048 85.8734C435.75 88.4901 431.26 89.7984 425.586 89.7984Z" fill="#BCBCBC"/>
<path d="M454 88.7984V75.5302H466V88.7984H454ZM454 65.3398V25.7984H466V65.3398H454Z" fill="#BCBCBC"/>
<path d="M376.971 460.317H329.62V456.437H376.971V460.317Z" fill="#BCBCBC"/>
<path d="M376.971 465.37H329.62V461.49H376.971V465.37Z" fill="#BCBCBC"/>
<path d="M376.971 470.422H329.62V466.542H376.971V470.422Z" fill="#BCBCBC"/>
<path d="M376.971 475.474H329.62V471.594H376.971V475.474Z" fill="#BCBCBC"/>
<path d="M376.971 480.526H329.62V476.648H376.971V480.526Z" fill="#BCBCBC"/>
<path d="M397.468 581.316H307.445V577.436H397.468V581.316Z" fill="#BCBCBC"/>
<path d="M397.468 586.368H307.445V582.488H397.468V586.368Z" fill="#BCBCBC"/>
<path d="M397.468 591.42H307.445V587.54H397.468V591.42Z" fill="#BCBCBC"/>
<path d="M397.468 596.472H307.445V592.593H397.468V596.472Z" fill="#BCBCBC"/>
<path d="M307.445 601.525H397.468V597.646H307.445V601.525Z" fill="#BCBCBC"/>
<path d="M267.947 424.376C267.991 423.852 248.243 417.237 248.243 417.237L249.409 349.388L275.595 343.769L267.947 424.376Z" fill="#FABB1E"/>
<path d="M265.991 423.462C261.011 421.513 248.243 417.237 248.243 417.237L249.409 349.388L272.741 344.382C270.045 370.94 267.583 402.041 265.991 423.462Z" fill="#D59814"/>
<path d="M448.82 451.008C448.959 450.5 469.777 451.085 469.777 451.085L492.031 386.98L469.379 372.693L448.82 451.008Z" fill="#FABB1E"/>
<path d="M469.777 451.085C469.777 451.085 459.657 450.801 453.483 450.801C452.229 450.801 451.137 450.812 450.327 450.84C456.517 429.396 465.499 398.224 472.317 374.545L492.031 386.98L469.777 451.085Z" fill="#D59814"/>
<path d="M264.145 449.358C264.145 449.358 271.467 339.628 277.888 303.53C277.888 303.53 410.443 313.556 482.003 340.906C482.003 340.906 445.109 469.077 443.201 475.437C443.201 475.437 349.857 457.049 264.145 449.358Z" fill="#FABB1E"/>
<path d="M457.427 418.222L454.059 417.469C454.064 417.444 454.071 417.418 454.076 417.393L457.427 418.222ZM376.86 399.728L368.445 397.761L367.996 397.656L368.077 397.202L375.151 357.672C377.529 344.5 379.983 331.34 382.464 318.184C380.308 331.397 378.129 344.605 375.871 357.798L369.116 396.917L377.092 398.812C377.012 399.114 376.935 399.421 376.86 399.728Z" fill="#F4AC12"/>
<path d="M375.031 328.302C374.427 328.302 373.799 328.086 373.313 327.665C372.767 327.188 372.44 326.456 372.436 325.714C372.439 324.974 372.764 324.241 373.312 323.764C373.795 323.34 374.425 323.125 375.029 323.125C375.108 323.125 375.185 323.129 375.263 323.136C376.651 323.258 377.615 324.505 377.591 325.714C377.616 326.925 376.649 328.17 375.263 328.292C375.187 328.298 375.108 328.302 375.031 328.302ZM375.497 323.625C375.419 323.625 375.34 323.63 375.263 323.638C374.144 323.768 373.419 324.772 373.435 325.714C373.419 326.657 374.143 327.666 375.263 327.793C375.34 327.802 375.417 327.806 375.495 327.806C375.972 327.806 376.469 327.644 376.86 327.312C377.315 326.925 377.585 326.325 377.591 325.714C377.585 325.104 377.315 324.505 376.86 324.118C376.468 323.788 375.972 323.625 375.497 323.625Z" fill="#F4AC12"/>
<path d="M372.703 344.63C372.099 344.63 371.471 344.414 370.985 343.992C370.439 343.516 370.112 342.784 370.108 342.042C370.112 341.302 370.437 340.568 370.984 340.092C371.467 339.668 372.097 339.453 372.701 339.453C372.78 339.453 372.857 339.456 372.935 339.464C374.323 339.585 375.288 340.832 375.263 342.042C375.288 343.253 374.321 344.498 372.935 344.62C372.859 344.626 372.78 344.63 372.703 344.63ZM373.169 339.953C373.091 339.953 373.012 339.957 372.935 339.966C371.816 340.096 371.091 341.098 371.107 342.042C371.089 342.985 371.813 343.994 372.935 344.121C373.012 344.13 373.089 344.134 373.167 344.134C373.644 344.134 374.141 343.972 374.532 343.64C374.987 343.253 375.256 342.653 375.263 342.042C375.257 341.432 374.987 340.832 374.531 340.446C374.14 340.116 373.645 339.953 373.169 339.953Z" fill="#F4AC12"/>
<path d="M369.836 361.881C369.232 361.881 368.604 361.666 368.12 361.244C367.573 360.766 367.247 360.034 367.243 359.294C367.245 358.554 367.571 357.82 368.119 357.344C368.601 356.92 369.231 356.705 369.835 356.705C369.913 356.705 369.992 356.708 370.069 356.716C371.457 356.837 372.42 358.084 372.396 359.294C372.42 360.505 371.456 361.749 370.069 361.87C369.992 361.877 369.915 361.881 369.836 361.881ZM370.303 357.204C370.224 357.204 370.145 357.209 370.069 357.217C368.951 357.346 368.224 358.35 368.241 359.294C368.223 360.237 368.948 361.245 370.069 361.373C370.145 361.381 370.223 361.386 370.3 361.386C370.777 361.386 371.275 361.222 371.665 360.89C372.121 360.505 372.391 359.905 372.396 359.294C372.391 358.684 372.12 358.084 371.665 357.698C371.275 357.368 370.777 357.204 370.303 357.204Z" fill="#F4AC12"/>
<path d="M366.971 379.133C366.367 379.133 365.737 378.918 365.252 378.494C364.705 378.02 364.379 377.286 364.375 376.545C364.379 375.806 364.704 375.072 365.252 374.594C365.733 374.172 366.363 373.956 366.967 373.956C367.045 373.956 367.124 373.96 367.201 373.968C368.589 374.089 369.555 375.336 369.529 376.545C369.555 377.757 368.588 379.001 367.201 379.122C367.125 379.129 367.048 379.133 366.971 379.133ZM367.433 374.456C367.355 374.456 367.279 374.46 367.201 374.469C366.084 374.598 365.359 375.602 365.373 376.545C365.357 377.488 366.081 378.497 367.201 378.625C367.277 378.633 367.355 378.638 367.432 378.638C367.909 378.638 368.407 378.474 368.8 378.142C369.253 377.757 369.524 377.156 369.529 376.545C369.525 375.934 369.253 375.334 368.799 374.949C368.407 374.618 367.909 374.456 367.433 374.456Z" fill="#F4AC12"/>
<path d="M376.735 406.646C376.131 406.646 375.504 406.43 375.02 406.008C374.473 405.533 374.145 404.8 374.143 404.058C374.145 403.318 374.472 402.585 375.019 402.108C375.5 401.685 376.129 401.469 376.735 401.469C376.813 401.469 376.892 401.473 376.971 401.481C377.496 401.526 377.963 401.734 378.336 402.041C378.319 402.114 378.303 402.19 378.287 402.265C377.952 402.066 377.572 401.969 377.204 401.969C377.125 401.969 377.047 401.974 376.971 401.984C375.851 402.112 375.125 403.116 375.143 404.058C375.124 405.001 375.849 406.01 376.971 406.138C377.045 406.146 377.123 406.15 377.2 406.15C377.353 406.15 377.511 406.134 377.665 406.1C377.651 406.229 377.637 406.358 377.624 406.486C377.42 406.564 377.2 406.616 376.971 406.636C376.892 406.642 376.815 406.646 376.735 406.646Z" fill="#F4AC12"/>
<path d="M364.101 396.385C363.499 396.385 362.871 396.169 362.387 395.748C361.839 395.27 361.512 394.538 361.508 393.797C361.512 393.057 361.837 392.322 362.384 391.846C362.868 391.422 363.496 391.208 364.1 391.208C364.179 391.208 364.259 391.212 364.336 391.218C365.724 391.341 366.688 392.588 366.663 393.797C366.688 395.008 365.721 396.253 364.336 396.374C364.259 396.381 364.18 396.385 364.101 396.385ZM364.571 391.708C364.492 391.708 364.413 391.713 364.336 391.721C363.217 391.85 362.491 392.854 362.508 393.797C362.489 394.74 363.215 395.749 364.336 395.876C364.412 395.885 364.489 395.889 364.567 395.889C365.044 395.889 365.54 395.726 365.932 395.394C366.388 395.008 366.657 394.408 366.663 393.797C366.657 393.186 366.387 392.588 365.932 392.202C365.54 391.87 365.045 391.708 364.571 391.708Z" fill="#F4AC12"/>
<path d="M314.125 432.037C312.124 432.037 310.099 431.877 308.06 431.546C287.539 428.222 273.597 408.892 276.923 388.37C279.916 369.888 295.896 356.742 314.033 356.742C316.035 356.742 318.06 356.902 320.1 357.232C340.621 360.557 354.561 379.888 351.237 400.41C348.243 418.892 332.263 432.037 314.125 432.037Z" fill="#D59814"/>
<path d="M343.88 399.217C341.213 415.676 325.709 426.856 309.252 424.19C292.795 421.524 281.613 406.02 284.28 389.562C286.947 373.104 302.449 361.924 318.908 364.59C335.365 367.257 346.545 382.76 343.88 399.217Z" fill="#191510"/>
<path d="M311.111 390.369L304.053 389.225L305.196 382.168L312.253 383.312L311.111 390.369Z" fill="#FABB1E"/>
<path d="M305.196 382.168L298.139 381.025L299.281 373.968L306.339 375.11L305.196 382.168Z" fill="#FABB1E"/>
<path d="M333.425 386.742L326.368 385.598L327.511 378.541L334.568 379.685L333.425 386.742Z" fill="#FABB1E"/>
<path d="M300.648 410.238L293.591 409.094L294.735 402.038L301.792 403.181L300.648 410.238Z" fill="#FABB1E"/>
<path d="M328.877 414.813L321.82 413.669L322.964 406.612L330.021 407.756L328.877 414.813Z" fill="#FABB1E"/>
<path d="M308.849 404.324L301.792 403.181L302.935 396.124L309.992 397.266L308.849 404.324Z" fill="#FABB1E"/>
<path d="M317.036 398.489L309.979 397.346L311.123 390.289L318.18 391.432L317.036 398.489Z" fill="#FABB1E"/>
<path d="M325.224 392.656L318.168 391.513L319.311 384.454L326.368 385.598L325.224 392.656Z" fill="#FABB1E"/>
<path d="M322.964 406.612L315.907 405.468L317.049 398.41L324.107 399.553L322.964 406.612Z" fill="#FABB1E"/>
<path d="M451.712 418.868C446.905 439.093 426.612 451.593 406.387 446.786C386.161 441.98 373.661 421.686 378.469 401.461C383.275 381.236 403.568 368.736 423.793 373.542C444.02 378.349 456.519 398.642 451.712 418.868Z" fill="#FABB1E"/>
<path d="M415.121 447.814C412.24 447.814 409.312 447.481 406.387 446.786C389.085 442.674 377.436 427.229 377.44 410.188C377.44 407.49 377.733 404.75 378.343 402.012C378.095 403.145 377.9 404.272 377.751 405.397L385.069 406.958C383.459 421.857 393.149 435.978 408.111 439.536C410.457 440.093 412.804 440.36 415.115 440.36C427.995 440.36 439.739 432.058 443.804 419.486L451.123 421.046C451.167 420.902 451.211 420.757 451.253 420.612C446.549 436.946 431.58 447.814 415.121 447.814Z" fill="#D59814"/>
<path d="M451.253 420.612C451.42 420.037 451.572 419.454 451.712 418.868C451.804 418.481 451.889 418.094 451.969 417.708L451.972 417.709C451.893 418.096 451.807 418.486 451.715 418.873C451.577 419.465 451.423 420.04 451.253 420.612Z" fill="#D59814"/>
<path d="M378.343 402.012C378.383 401.826 378.424 401.642 378.468 401.457C378.559 401.072 378.656 400.688 378.759 400.309H378.761C378.659 400.689 378.56 401.074 378.469 401.461C378.425 401.645 378.383 401.828 378.343 402.012Z" fill="#D59814"/>
<path d="M451.123 421.046L443.804 419.486C444.052 418.721 444.271 417.941 444.46 417.145C444.552 416.757 444.636 416.37 444.712 415.982L451.969 417.708C451.889 418.094 451.804 418.481 451.712 418.868C451.572 419.454 451.42 420.037 451.253 420.612C451.211 420.757 451.167 420.902 451.123 421.046ZM385.069 406.958L377.751 405.397C377.9 404.272 378.095 403.145 378.343 402.012C378.383 401.828 378.425 401.645 378.469 401.461C378.56 401.074 378.659 400.689 378.761 400.309L386.017 402.033C385.912 402.413 385.812 402.798 385.72 403.185C385.421 404.444 385.205 405.704 385.069 406.958Z" fill="#A27619"/>
<path d="M444.46 417.145C440.605 433.365 424.331 443.389 408.111 439.536C391.889 435.68 381.864 419.405 385.72 403.185C389.576 386.964 405.849 376.938 422.071 380.794C438.291 384.649 448.315 400.924 444.46 417.145Z" fill="#191510"/>
<path d="M414.455 428.302L407.499 426.648L415.727 392.028L422.683 393.68L414.455 428.302Z" fill="#FABB1E"/>
<path d="M453.9 418.166L376.831 399.85C381.888 378.573 403.244 365.426 424.521 370.484C445.799 375.54 458.956 396.889 453.9 418.166Z" fill="#FABB1E"/>
<path d="M453.9 418.166L418.843 409.834L411.888 408.182L376.831 399.85C381.156 381.652 397.405 369.401 415.329 369.401C418.363 369.401 421.441 369.752 424.521 370.484C442.723 374.809 454.983 391.058 454.981 408.986C454.981 411.761 454.687 414.576 454.076 417.393C454.071 417.418 454.064 417.444 454.059 417.469C454.008 417.701 453.955 417.934 453.9 418.166Z" fill="#D59814"/>
<path d="M370.627 435.673C370.124 432.716 369.36 429.846 367.972 427.489C366.595 425.116 364.417 423.64 361.82 423.409C361.401 423.357 360.984 423.33 360.571 423.33C358.368 423.33 356.26 424.069 354.508 425.549C352.425 427.304 350.837 429.816 349.596 432.54C349.791 429.532 350.897 426.48 353.079 424.065C354.155 422.849 355.589 421.894 357.172 421.313C358.355 420.878 359.608 420.71 360.844 420.71C361.268 420.71 361.689 420.73 362.105 420.765C363.763 420.958 365.456 421.542 366.836 422.588C368.192 423.654 369.229 425.044 369.84 426.541C371.096 429.526 371.235 432.714 370.627 435.673Z" fill="#F4AC12"/>
<path d="M274.456 355.764C274.769 351.742 275.22 347.74 275.601 343.729C276.029 339.724 276.469 335.72 276.957 331.722C277.42 327.722 277.941 323.73 278.452 319.736C278.953 315.741 279.532 311.757 280.069 307.768L280.212 306.702L281.292 306.769C289.977 307.317 298.644 308.018 307.299 308.908C311.625 309.352 315.947 309.854 320.261 310.41C324.569 311.029 328.884 311.598 333.167 312.382L307.143 310.772L281.148 309.09L282.371 308.093C281.78 312.076 281.231 316.064 280.605 320.041C279.991 324.02 279.384 328 278.72 331.972C278.08 335.948 277.392 339.916 276.693 343.882C275.947 347.844 275.271 351.813 274.456 355.764Z" fill="white"/>
<path d="M280.717 386.186C281.591 381.352 283.788 376.744 286.739 372.733C287.473 371.724 288.309 370.79 289.113 369.832C289.984 368.933 290.891 368.065 291.784 367.182C292.757 366.39 293.743 365.605 294.743 364.844C295.805 364.169 296.853 363.466 297.935 362.82C299.072 362.274 300.203 361.71 301.351 361.192L304.927 359.954L308.628 359.19C309.871 359.008 311.133 358.97 312.38 358.876C317.4 358.746 322.339 359.817 326.872 361.653C322.047 360.75 317.239 360.248 312.499 360.701C307.771 361.141 303.176 362.554 299.068 364.869C294.928 367.129 291.261 370.246 288.164 373.868C285.079 377.508 282.525 381.63 280.717 386.186Z" fill="white"/>
<path d="M384.549 396.354C386.084 391.686 388.896 387.428 392.372 383.862C393.239 382.964 394.196 382.154 395.125 381.317C396.111 380.546 397.128 379.812 398.136 379.061C399.209 378.412 400.293 377.769 401.388 377.152C402.533 376.632 403.669 376.081 404.829 375.59C406.031 375.205 407.229 374.804 408.437 374.448L412.151 373.716L415.921 373.472C417.177 373.462 418.433 373.598 419.681 373.678C424.671 374.244 429.415 375.985 433.651 378.429C428.996 376.869 424.305 375.708 419.547 375.501C414.804 375.285 410.057 376.05 405.669 377.776C401.256 379.442 397.196 382.024 393.628 385.182C390.069 388.362 386.972 392.092 384.549 396.354Z" fill="white"/>
<path d="M268.357 516.981C258.715 516.981 237.605 514.813 224.021 497.348C206.643 475.004 212.923 432.129 213.199 430.314L220.744 431.46C220.681 431.872 214.685 472.914 230.045 492.662C245.063 511.972 272.301 509.2 272.575 509.165L273.433 516.749C273.135 516.782 271.267 516.981 268.357 516.981Z" fill="#FABB1E"/>
<path d="M267.753 516.977C257.857 516.886 237.328 514.456 224.021 497.348C214.059 484.54 211.872 464.984 211.871 450.284C211.871 439.341 213.081 431.088 213.199 430.314L220.744 431.46C220.717 431.641 219.54 439.686 219.54 450.322C219.539 463.862 221.443 481.602 230.045 492.662C240.756 506.433 257.683 508.973 266.609 509.285L267.753 516.977Z" fill="#FCD361"/>
<path d="M222.965 436.65C221.588 436.65 220.184 436.537 218.752 436.305C206.025 434.244 200.39 426.626 197.903 420.6C195.411 414.56 194.835 407.254 196.192 398.885L212.333 401.501C211.493 406.686 211.737 411.254 213.02 414.365C213.935 416.582 215.711 419.246 221.368 420.162C223.952 420.581 226.745 420.361 229.671 415.948C231.928 412.542 233.285 407.908 233.76 404.973L249.901 407.588C249.528 409.897 247.947 417.977 243.299 424.984C238.244 432.606 231.131 436.65 222.965 436.65Z" fill="#FABB1E"/>
<path d="M284.301 538.821C284.273 538.474 270.627 536.293 270.627 536.293L264.003 491.753L280.531 485.224L284.301 538.821Z" fill="#FABB1E"/>
<path d="M282.469 538.342C278.743 537.591 270.627 536.293 270.627 536.293L264.003 491.753L278.78 485.916C279.267 502 280.801 521.145 282.469 538.342Z" fill="#D59814"/>
<path d="M419.229 538.904C419.265 538.557 432.957 536.68 432.957 536.68L440.564 492.296L424.184 485.404L419.229 538.904Z" fill="#FABB1E"/>
<path d="M435.996 518.945L439.969 492.045L440.564 492.296L435.996 518.945ZM424.459 494.55C424.793 491.305 425.093 488.388 425.351 485.894L438.977 491.628L435.168 490.929L424.459 494.55Z" fill="#D59814"/>
<path d="M278.623 475.252C278.623 475.252 389.004 470.532 426.291 476.746C426.291 476.746 415.341 583.553 414.751 585.625C414.751 585.625 304.948 585.329 287.784 585.625C287.784 585.625 278.481 514.602 278.623 475.252Z" fill="#FABB1E"/>
<path d="M386.463 560.175C386.463 560.175 359.821 560.109 339.285 560.109C331.523 560.109 324.637 560.118 320.387 560.145L315.911 504.382C323.095 504.14 339.519 503.653 355.917 503.653C370.309 503.653 384.681 504.028 392.763 505.272L386.463 560.175Z" fill="#D59814"/>
<path d="M317.148 560.18C317.148 560.18 313.036 523.312 312.147 504.516C312.147 504.516 313.517 504.462 315.911 504.382C313.519 504.464 312.151 504.518 312.151 504.518C313.033 523.314 317.151 560.175 317.151 560.175C317.913 560.163 319.012 560.153 320.387 560.145V560.151C319.007 560.151 317.913 560.17 317.148 560.18Z" fill="#D59814"/>
<path d="M317.151 560.175C317.151 560.175 313.033 523.314 312.151 504.518C312.151 504.518 313.519 504.464 315.911 504.384L320.387 560.145C319.012 560.153 317.913 560.163 317.151 560.175Z" fill="#A27619"/>
<path d="M341.6 525.612C340.665 528.58 337.507 530.225 334.543 529.292C331.579 528.357 329.932 525.2 330.867 522.23C331.801 519.266 334.96 517.621 337.928 518.556C340.889 519.489 342.535 522.649 341.6 525.612ZM338.161 517.809C334.783 516.745 331.185 518.62 330.12 521.994C329.056 525.374 330.932 528.97 334.309 530.036C337.684 531.098 341.279 529.225 342.343 525.848C343.407 522.474 341.535 518.872 338.161 517.809ZM341.6 525.612C340.665 528.58 337.507 530.225 334.543 529.292C331.579 528.357 329.932 525.2 330.867 522.23C331.801 519.266 334.96 517.621 337.928 518.556C340.889 519.489 342.535 522.649 341.6 525.612ZM338.161 517.809C334.783 516.745 331.185 518.62 330.12 521.994C329.056 525.374 330.932 528.97 334.309 530.036C337.684 531.098 341.279 529.225 342.343 525.848C343.407 522.474 341.535 518.872 338.161 517.809ZM341.6 525.612C340.665 528.58 337.507 530.225 334.543 529.292C331.579 528.357 329.932 525.2 330.867 522.23C331.801 519.266 334.96 517.621 337.928 518.556C340.889 519.489 342.535 522.649 341.6 525.612ZM342.343 525.848C343.407 522.474 341.535 518.872 338.161 517.809C334.783 516.745 331.185 518.62 330.12 521.994C329.056 525.374 330.932 528.97 334.309 530.036C337.684 531.098 341.279 529.225 342.343 525.848ZM343.296 526.146C342.068 530.042 337.903 532.213 334.008 530.986C330.115 529.76 327.944 525.594 329.172 521.698C330.4 517.801 334.568 515.633 338.461 516.861C342.352 518.088 344.523 522.253 343.296 526.146ZM340.296 511.038C333.175 508.796 325.592 512.752 323.349 519.862C321.108 526.977 325.056 534.565 332.173 536.806C339.285 539.046 346.875 535.094 349.115 527.981C351.359 520.87 347.408 513.277 340.296 511.038ZM341.6 525.612C340.665 528.58 337.507 530.225 334.543 529.292C331.579 528.357 329.932 525.2 330.867 522.23C331.801 519.266 334.96 517.621 337.928 518.556C340.889 519.489 342.535 522.649 341.6 525.612ZM338.161 517.809C334.783 516.745 331.185 518.62 330.12 521.994C329.056 525.374 330.932 528.97 334.309 530.036C337.684 531.098 341.279 529.225 342.343 525.848C343.407 522.474 341.535 518.872 338.161 517.809ZM341.6 525.612C340.665 528.58 337.507 530.225 334.543 529.292C331.579 528.357 329.932 525.2 330.867 522.23C331.801 519.266 334.96 517.621 337.928 518.556C340.889 519.489 342.535 522.649 341.6 525.612ZM338.161 517.809C334.783 516.745 331.185 518.62 330.12 521.994C329.056 525.374 330.932 528.97 334.309 530.036C337.684 531.098 341.279 529.225 342.343 525.848C343.407 522.474 341.535 518.872 338.161 517.809ZM341.6 525.612C340.665 528.58 337.507 530.225 334.543 529.292C331.579 528.357 329.932 525.2 330.867 522.23C331.801 519.266 334.96 517.621 337.928 518.556C340.889 519.489 342.535 522.649 341.6 525.612ZM338.161 517.809C334.783 516.745 331.185 518.62 330.12 521.994C329.056 525.374 330.932 528.97 334.309 530.036C337.684 531.098 341.279 529.225 342.343 525.848C343.407 522.474 341.535 518.872 338.161 517.809Z" fill="#191510"/>
<path d="M334.819 537.051L329.864 535.491L329.033 539.084L333.44 540.472L334.819 537.051Z" fill="#191510"/>
<path d="M325.916 532.412L323.516 527.805L320.388 529.758L322.523 533.855L325.916 532.412Z" fill="#191510"/>
<path d="M322.901 522.834L324.463 517.88L320.869 517.049L319.48 521.456L322.901 522.834Z" fill="#191510"/>
<path d="M327.541 513.93L332.148 511.533L330.196 508.404L326.097 510.538L327.541 513.93Z" fill="#191510"/>
<path d="M337.117 510.917L342.072 512.478L342.903 508.884L338.497 507.496L337.117 510.917Z" fill="#191510"/>
<path d="M346.021 515.557L348.42 520.164L351.548 518.21L349.415 514.113L346.021 515.557Z" fill="#191510"/>
<path d="M349.036 525.134L347.475 530.088L351.068 530.92L352.456 526.513L349.036 525.134Z" fill="#191510"/>
<path d="M344.395 534.037L339.788 536.436L341.741 539.563L345.839 537.43L344.395 534.037Z" fill="#191510"/>
<path d="M360.767 542.344C359.625 544.098 357.279 544.594 355.525 543.453C353.772 542.312 353.276 539.967 354.419 538.209C355.56 536.457 357.907 535.961 359.661 537.103C361.413 538.245 361.909 540.591 360.767 542.344ZM359.948 536.661C357.951 535.36 355.277 535.927 353.977 537.922C352.676 539.922 353.243 542.593 355.24 543.893C357.236 545.194 359.907 544.629 361.207 542.63C362.507 540.636 361.944 537.961 359.948 536.661ZM360.767 542.344C359.625 544.098 357.279 544.594 355.525 543.453C353.772 542.312 353.276 539.967 354.419 538.209C355.56 536.457 357.907 535.961 359.661 537.103C361.413 538.245 361.909 540.591 360.767 542.344ZM359.948 536.661C357.951 535.36 355.277 535.927 353.977 537.922C352.676 539.922 353.243 542.593 355.24 543.893C357.236 545.194 359.907 544.629 361.207 542.63C362.507 540.636 361.944 537.961 359.948 536.661ZM360.767 542.344C359.625 544.098 357.279 544.594 355.525 543.453C353.772 542.312 353.276 539.967 354.419 538.209C355.56 536.457 357.907 535.961 359.661 537.103C361.413 538.245 361.909 540.591 360.767 542.344ZM361.207 542.63C362.507 540.636 361.944 537.961 359.948 536.661C357.951 535.36 355.277 535.927 353.977 537.922C352.676 539.922 353.243 542.593 355.24 543.893C357.236 545.194 359.907 544.629 361.207 542.63ZM361.771 542.996C360.269 545.301 357.176 545.956 354.872 544.456C352.569 542.956 351.916 539.862 353.416 537.557C354.917 535.253 358.012 534.6 360.315 536.1C362.616 537.598 363.271 540.693 361.771 542.996ZM362.557 532.656C358.345 529.914 352.712 531.108 349.972 535.315C347.232 539.524 348.42 545.157 352.631 547.898C356.837 550.637 362.473 549.446 365.212 545.239C367.953 541.033 366.764 535.394 362.557 532.656ZM360.767 542.344C359.625 544.098 357.279 544.594 355.525 543.453C353.772 542.312 353.276 539.967 354.419 538.209C355.56 536.457 357.907 535.961 359.661 537.103C361.413 538.245 361.909 540.591 360.767 542.344ZM359.948 536.661C357.951 535.36 355.277 535.927 353.977 537.922C352.676 539.922 353.243 542.593 355.24 543.893C357.236 545.194 359.907 544.629 361.207 542.63C362.507 540.636 361.944 537.961 359.948 536.661ZM360.767 542.344C359.625 544.098 357.279 544.594 355.525 543.453C353.772 542.312 353.276 539.967 354.419 538.209C355.56 536.457 357.907 535.961 359.661 537.103C361.413 538.245 361.909 540.591 360.767 542.344ZM359.948 536.661C357.951 535.36 355.277 535.927 353.977 537.922C352.676 539.922 353.243 542.593 355.24 543.893C357.236 545.194 359.907 544.629 361.207 542.63C362.507 540.636 361.944 537.961 359.948 536.661ZM360.767 542.344C359.625 544.098 357.279 544.594 355.525 543.453C353.772 542.312 353.276 539.967 354.419 538.209C355.56 536.457 357.907 535.961 359.661 537.103C361.413 538.245 361.909 540.591 360.767 542.344ZM359.948 536.661C357.951 535.36 355.277 535.927 353.977 537.922C352.676 539.922 353.243 542.593 355.24 543.893C357.236 545.194 359.907 544.629 361.207 542.63C362.507 540.636 361.944 537.961 359.948 536.661Z" fill="#191510"/>
<path d="M354.301 548.536L351.371 546.628L350.183 548.808L352.789 550.504L354.301 548.536Z" fill="#191510"/>
<path d="M349.367 543.917L348.644 540.494L346.261 541.197L346.905 544.24L349.367 543.917Z" fill="#191510"/>
<path d="M349.143 537.161L351.052 534.23L348.872 533.041L347.175 535.649L349.143 537.161Z" fill="#191510"/>
<path d="M353.763 532.227L357.184 531.503L356.483 529.121L353.44 529.764L353.763 532.227Z" fill="#191510"/>
<path d="M360.519 532.003L363.449 533.912L364.637 531.732L362.031 530.034L360.519 532.003Z" fill="#191510"/>
<path d="M365.453 536.622L366.176 540.042L368.557 539.342L367.916 536.3L365.453 536.622Z" fill="#191510"/>
<path d="M365.676 543.377L363.768 546.309L365.948 547.497L367.644 544.891L365.676 543.377Z" fill="#191510"/>
<path d="M361.057 548.313L357.636 549.036L358.336 551.417L361.379 550.774L361.057 548.313Z" fill="#191510"/>
<path d="M423.628 573.197L427.868 573.985L440.003 491.817L435.168 490.929L423.628 573.197Z" fill="#FABB1E"/>
<path d="M386.463 560.175L392.763 505.272L435.168 490.929C435.168 490.929 423.628 574.085 423.628 573.197L386.463 560.175Z" fill="#FABB1E"/>
<path d="M423.628 573.204C423.628 573.204 423.628 573.201 423.628 573.197L416.484 570.693L386.463 560.175L392.763 505.272L435.168 490.929C435.129 491.209 423.867 572.36 423.631 573.197C423.631 573.201 423.628 573.204 423.628 573.204Z" fill="#FCD361"/>
<path d="M283.688 507.496C282.997 502.948 282.624 498.364 282.34 493.774C282.211 491.48 282.152 489.18 282.101 486.881C282.055 484.582 282.015 482.281 282.084 479.981L282.101 479.377L282.689 479.345C291.113 478.893 299.532 478.34 307.961 477.972C316.387 477.556 324.815 477.178 333.248 476.914C324.84 477.676 316.429 478.324 308.016 478.933C299.607 479.592 291.185 480.062 282.771 480.637L283.377 480.001L283.343 486.868L283.423 493.736C283.435 496.028 283.476 498.318 283.543 500.61L283.688 507.496Z" fill="white"/>
<path d="M398.679 506.078C401.305 504.83 403.973 503.67 406.673 502.598C409.364 501.502 412.083 500.466 414.829 499.513C417.581 498.573 420.343 497.653 423.149 496.873C425.953 496.084 428.783 495.354 431.673 494.881L432.384 494.765L432.256 495.444C431.591 498.998 430.895 502.548 430.072 506.078C430.38 502.468 430.815 498.876 431.28 495.289L431.863 495.852C429.063 496.52 426.284 497.301 423.513 498.12C420.745 498.946 417.985 499.818 415.233 500.716L398.679 506.078Z" fill="white"/>
<path d="M305.808 585.4L305.092 571.668L304.481 557.93L303.424 530.454L302.599 502.969L302.267 489.222L302.103 479.369C302.149 479.365 302.195 479.362 302.24 479.36L302.752 489.206L303.364 502.942L304.423 530.42L305.251 557.905L305.581 571.651L305.808 585.4ZM302.084 478.254L302.039 475.474L302.183 478.249C302.151 478.252 302.117 478.253 302.084 478.254Z" fill="#F4AC12"/>
<path d="M302.103 479.369L302.084 478.254C302.117 478.253 302.151 478.252 302.183 478.249L302.24 479.36C302.195 479.362 302.149 479.365 302.103 479.369Z" fill="#BCBCBC"/>
<path d="M295.589 486.845C295.148 486.845 294.697 486.736 294.299 486.508C293.668 486.15 293.203 485.496 293.053 484.77C292.909 484.044 293.084 483.261 293.527 482.685C293.967 482.106 294.643 481.756 295.313 481.684C295.407 481.673 295.5 481.668 295.591 481.668C296.855 481.668 297.904 482.64 298.105 483.752C297.979 483.153 297.596 482.62 297.073 482.332C296.756 482.157 296.404 482.076 296.06 482.076C295.837 482.076 295.617 482.11 295.413 482.176C294.343 482.525 293.829 483.65 294.032 484.573C294.192 485.452 295.017 486.257 296.06 486.257C296.117 486.257 296.176 486.254 296.235 486.25C296.78 486.204 297.335 485.93 297.704 485.461C298.075 484.993 298.221 484.352 298.105 483.752C298.369 484.933 297.668 486.345 296.333 486.737C296.096 486.809 295.844 486.845 295.589 486.845Z" fill="#F4AC12"/>
<path d="M296.535 503.31C296.093 503.31 295.644 503.201 295.244 502.974C294.613 502.614 294.148 501.961 293.999 501.236C293.856 500.51 294.028 499.725 294.472 499.15C294.912 498.573 295.588 498.22 296.26 498.15C296.353 498.14 296.445 498.134 296.536 498.134C297.8 498.134 298.851 499.106 299.051 500.217C298.925 499.62 298.541 499.085 298.019 498.797C297.701 498.622 297.351 498.541 297.008 498.541C296.784 498.541 296.564 498.576 296.359 498.642C295.288 498.989 294.775 500.117 294.977 501.038C295.137 501.917 295.961 502.722 297.004 502.722C297.061 502.722 297.121 502.72 297.18 502.714C297.724 502.668 298.28 502.396 298.651 501.926C299.02 501.458 299.165 500.816 299.051 500.217C299.315 501.4 298.613 502.81 297.279 503.204C297.041 503.274 296.789 503.31 296.535 503.31Z" fill="#F4AC12"/>
<path d="M297.135 520.789C296.693 520.789 296.243 520.68 295.844 520.452C295.213 520.092 294.748 519.438 294.597 518.713C294.455 517.988 294.629 517.204 295.072 516.629C295.512 516.05 296.188 515.698 296.86 515.628C296.952 515.617 297.045 515.612 297.136 515.612C298.4 515.612 299.451 516.584 299.651 517.696C299.525 517.097 299.14 516.562 298.619 516.274C298.303 516.101 297.951 516.018 297.608 516.018C297.384 516.018 297.164 516.053 296.959 516.12C295.888 516.468 295.375 517.594 295.577 518.517C295.737 519.394 296.561 520.2 297.603 520.2C297.661 520.2 297.72 520.198 297.78 520.193C298.324 520.146 298.88 519.873 299.251 519.405C299.62 518.936 299.767 518.294 299.651 517.696C299.915 518.877 299.213 520.288 297.879 520.681C297.641 520.752 297.389 520.789 297.135 520.789Z" fill="#F4AC12"/>
<path d="M297.735 538.267C297.293 538.267 296.843 538.157 296.444 537.929C295.813 537.57 295.348 536.917 295.199 536.192C295.055 535.467 295.228 534.681 295.671 534.106C296.112 533.529 296.788 533.175 297.46 533.105C297.553 533.094 297.645 533.091 297.736 533.091C299 533.091 300.051 534.062 300.251 535.173C300.124 534.575 299.741 534.04 299.219 533.753C298.901 533.579 298.551 533.497 298.207 533.497C297.984 533.497 297.764 533.532 297.559 533.597C296.488 533.945 295.975 535.073 296.177 535.994C296.337 536.873 297.161 537.679 298.203 537.679C298.261 537.679 298.32 537.675 298.38 537.67C298.924 537.624 299.48 537.351 299.851 536.882C300.22 536.415 300.365 535.772 300.251 535.173C300.515 536.356 299.813 537.765 298.479 538.158C298.241 538.23 297.989 538.267 297.735 538.267Z" fill="#F4AC12"/>
<path d="M298.335 555.745C297.893 555.745 297.443 555.636 297.044 555.408C296.413 555.048 295.948 554.394 295.797 553.669C295.655 552.944 295.829 552.158 296.271 551.585C296.711 551.006 297.388 550.653 298.059 550.584C298.152 550.573 298.245 550.568 298.336 550.568C299.6 550.568 300.649 551.54 300.851 552.651C300.724 552.053 300.34 551.518 299.819 551.23C299.501 551.056 299.151 550.974 298.807 550.974C298.584 550.974 298.364 551.009 298.159 551.075C297.088 551.424 296.575 552.551 296.777 553.473C296.937 554.351 297.761 555.156 298.803 555.156C298.861 555.156 298.92 555.153 298.98 555.149C299.524 555.101 300.08 554.829 300.449 554.361C300.82 553.892 300.965 553.251 300.851 552.651C301.113 553.833 300.413 555.244 299.079 555.637C298.841 555.708 298.589 555.745 298.335 555.745Z" fill="#F4AC12"/>
<path d="M298.935 573.222C298.493 573.222 298.043 573.113 297.643 572.885C297.013 572.527 296.548 571.872 296.397 571.148C296.255 570.422 296.428 569.637 296.871 569.062C297.311 568.484 297.988 568.132 298.659 568.061C298.752 568.051 298.844 568.046 298.936 568.046C300.2 568.046 301.249 569.017 301.451 570.129C301.324 569.532 300.941 568.996 300.417 568.708C300.101 568.534 299.751 568.453 299.407 568.453C299.184 568.453 298.964 568.486 298.759 568.553C297.688 568.901 297.175 570.029 297.377 570.951C297.537 571.829 298.361 572.634 299.403 572.634C299.461 572.634 299.52 572.632 299.58 572.627C300.124 572.58 300.68 572.308 301.049 571.839C301.42 571.37 301.565 570.729 301.451 570.129C301.715 571.312 301.013 572.721 299.679 573.115C299.441 573.186 299.189 573.222 298.935 573.222Z" fill="#F4AC12"/>
<path d="M246.585 623.094L244.372 615.792L306.873 596.851L309.087 604.155L246.585 623.094Z" fill="#FABB1E"/>
<path d="M255.101 620.513L253.725 612.957L306.873 596.851L309.087 604.155L255.101 620.513Z" fill="#FCD361"/>
<path d="M273.093 616.53L269.659 605.729L276.931 603.417L280.365 614.217L273.093 616.53Z" fill="#FABB1E"/>
<path d="M246.071 633.796L229.943 563.957L181.263 575.497L205.233 643.561L246.071 633.796Z" fill="#FABB1E"/>
<path d="M256.872 630.244L246.071 633.796L229.943 563.957L245.479 567.655L256.872 630.244Z" fill="#FABB1E"/>
<path d="M246.071 633.796L229.943 563.957L245.479 567.655L256.872 630.244L246.071 633.796Z" fill="#D59814"/>
<path d="M316.267 600.504C316.267 605.08 312.557 608.789 307.98 608.789C303.404 608.789 299.695 605.08 299.695 600.504C299.695 595.928 303.404 592.217 307.98 592.217C312.557 592.217 316.267 595.928 316.267 600.504Z" fill="#FABB1E"/>
<path d="M453.485 623.033L391.025 603.961L393.252 596.662L455.715 615.734L453.485 623.033Z" fill="#FABB1E"/>
<path d="M444.976 620.434L391.025 603.961L393.252 596.662L446.367 612.88L444.976 620.434Z" fill="#FCD361"/>
<path d="M426.991 616.413L419.724 614.084L423.184 603.291L430.451 605.618L426.991 616.413Z" fill="#FABB1E"/>
<path d="M453.977 633.734L470.253 563.929L518.911 575.574L494.795 643.587L453.977 633.734Z" fill="#FABB1E"/>
<path d="M443.184 630.16L453.977 633.734L470.253 563.929L454.709 567.596L443.184 630.16Z" fill="#FABB1E"/>
<path d="M453.977 633.734L443.184 630.16L454.709 567.596L470.253 563.929L453.977 633.734Z" fill="#D59814"/>
<path d="M383.853 600.294C383.844 604.87 387.545 608.587 392.121 608.597C396.697 608.606 400.416 604.905 400.424 600.329C400.435 595.753 396.733 592.036 392.156 592.025C387.581 592.016 383.863 595.717 383.853 600.294Z" fill="#FABB1E"/>
<path d="M446.384 514.153C446.581 513.97 466.656 495.35 490.271 501.718C514.42 508.234 534.36 544.608 534.557 544.975L541.269 541.346C540.397 539.732 519.601 501.714 492.257 494.352C464.448 486.852 442.068 507.729 441.129 508.622L446.384 514.153Z" fill="#FABB1E"/>
<path d="M534.557 544.975C534.36 544.608 514.42 508.234 490.271 501.718C486.824 500.789 483.453 500.392 480.209 500.392C461.22 500.392 446.552 513.997 446.384 514.153L441.129 508.622C441.925 507.865 458.147 492.729 480.027 492.729C483.94 492.729 488.039 493.213 492.257 494.352C519.601 501.714 540.397 539.732 541.269 541.346L534.557 544.975Z" fill="#FCD361"/>
<path d="M525.657 581.594L540.12 573.958C538.731 571.329 537.023 566.813 536.773 562.734C536.452 557.449 538.549 555.591 540.863 554.369C545.931 551.693 548.953 552.754 551.02 553.97C553.917 555.681 556.863 559.181 559.315 563.825L573.776 556.192C569.817 548.696 564.959 543.209 559.331 539.887C553.716 536.58 544.632 533.889 533.228 539.909C524.34 544.601 519.803 553.06 520.452 563.728C520.963 572.121 524.567 579.524 525.657 581.594Z" fill="#FABB1E"/>
<path d="M405.397 176.301C404.486 173.141 404.362 169.764 404.877 166.5C405.387 163.238 406.493 160.028 408.298 157.217C410.077 154.402 412.558 151.97 415.559 150.42C418.554 148.857 421.963 148.178 425.322 148.281C428.689 148.373 431.998 149.244 435.043 150.633C438.077 152.044 440.927 153.948 443.134 156.566C444.186 157.885 445.202 159.421 445.265 161.353C445.29 162.305 444.903 163.324 444.221 164.014C443.543 164.662 442.803 165.189 441.871 165.46C440.954 165.741 439.934 165.672 439.059 165.338C438.181 165.008 437.442 164.465 436.799 163.865C435.521 162.646 434.614 161.172 433.867 159.657C432.383 156.609 431.602 153.308 431.225 149.99C430.858 146.669 430.953 143.298 431.531 140.002C432.645 133.433 436.033 127.086 441.426 123.024C444.101 121.028 447.11 119.412 450.357 118.588C453.583 117.708 456.978 117.55 460.269 117.952C463.565 118.36 466.766 119.316 469.79 120.621C472.815 121.928 475.705 123.556 478.31 125.556C472.894 121.892 466.67 119.268 460.194 118.628C456.97 118.3 453.682 118.52 450.59 119.432C447.477 120.285 444.619 121.897 442.083 123.866C439.577 125.874 437.445 128.341 435.885 131.148C434.313 133.948 433.285 137.042 432.742 140.214C431.705 146.544 432.374 153.288 435.05 159.084C435.738 160.509 436.583 161.878 437.683 162.936C438.763 163.99 440.189 164.68 441.523 164.257C442.179 164.086 442.826 163.633 443.329 163.157C443.801 162.673 444.046 162.048 444.039 161.357C444.021 159.957 443.177 158.529 442.205 157.329C440.185 154.902 437.455 153.041 434.558 151.684C431.647 150.333 428.482 149.508 425.282 149.362C422.089 149.216 418.847 149.83 415.983 151.25C413.111 152.657 410.681 154.924 408.901 157.609C405.341 162.988 403.946 169.892 405.397 176.301Z" fill="#BCBCBC"/>
<path d="M488.171 127.581C487.447 129.877 485.003 131.152 482.709 130.428C480.414 129.705 479.139 127.26 479.863 124.964C480.587 122.668 483.031 121.394 485.329 122.118C487.621 122.841 488.894 125.285 488.171 127.581ZM485.509 121.54C482.894 120.716 480.11 122.168 479.286 124.78C478.461 127.397 479.914 130.18 482.529 131.004C485.141 131.828 487.923 130.377 488.747 127.762C489.57 125.15 488.121 122.364 485.509 121.54ZM488.171 127.581C487.447 129.877 485.003 131.152 482.709 130.428C480.414 129.705 479.139 127.26 479.863 124.964C480.587 122.668 483.031 121.394 485.329 122.118C487.621 122.841 488.894 125.285 488.171 127.581ZM485.509 121.54C482.894 120.716 480.11 122.168 479.286 124.78C478.461 127.397 479.914 130.18 482.529 131.004C485.141 131.828 487.923 130.377 488.747 127.762C489.57 125.15 488.121 122.364 485.509 121.54ZM488.171 127.581C487.447 129.877 485.003 131.152 482.709 130.428C480.414 129.705 479.139 127.26 479.863 124.964C480.587 122.668 483.031 121.394 485.329 122.118C487.621 122.841 488.894 125.285 488.171 127.581ZM488.747 127.762C489.57 125.15 488.121 122.364 485.509 121.54C482.894 120.716 480.11 122.168 479.286 124.78C478.461 127.397 479.914 130.18 482.529 131.004C485.141 131.828 487.923 130.377 488.747 127.762ZM489.485 127.993C488.534 131.009 485.31 132.69 482.295 131.741C479.281 130.79 477.601 127.566 478.551 124.55C479.502 121.533 482.727 119.856 485.742 120.805C488.754 121.756 490.434 124.98 489.485 127.993ZM487.163 116.298C481.65 114.562 475.781 117.625 474.045 123.129C472.31 128.636 475.366 134.509 480.875 136.245C486.381 137.98 492.254 134.921 493.989 129.414C495.726 123.909 492.669 118.033 487.163 116.298ZM488.171 127.581C487.447 129.877 485.003 131.152 482.709 130.428C480.414 129.705 479.139 127.26 479.863 124.964C480.587 122.668 483.031 121.394 485.329 122.118C487.621 122.841 488.894 125.285 488.171 127.581ZM485.509 121.54C482.894 120.716 480.11 122.168 479.286 124.78C478.461 127.397 479.914 130.18 482.529 131.004C485.141 131.828 487.923 130.377 488.747 127.762C489.57 125.15 488.121 122.364 485.509 121.54ZM488.171 127.581C487.447 129.877 485.003 131.152 482.709 130.428C480.414 129.705 479.139 127.26 479.863 124.964C480.587 122.668 483.031 121.394 485.329 122.118C487.621 122.841 488.894 125.285 488.171 127.581ZM485.509 121.54C482.894 120.716 480.11 122.168 479.286 124.78C478.461 127.397 479.914 130.18 482.529 131.004C485.141 131.828 487.923 130.377 488.747 127.762C489.57 125.15 488.121 122.364 485.509 121.54ZM488.171 127.581C487.447 129.877 485.003 131.152 482.709 130.428C480.414 129.705 479.139 127.26 479.863 124.964C480.587 122.668 483.031 121.394 485.329 122.118C487.621 122.841 488.894 125.285 488.171 127.581ZM485.509 121.54C482.894 120.716 480.11 122.168 479.286 124.78C478.461 127.397 479.914 130.18 482.529 131.004C485.141 131.828 487.923 130.377 488.747 127.762C489.57 125.15 488.121 122.364 485.509 121.54Z" fill="#BCBCBC"/>
<path d="M482.922 136.436L479.087 135.226L478.445 138.008L481.855 139.084L482.922 136.436Z" fill="#BCBCBC"/>
<path d="M476.03 132.842L474.173 129.277L471.751 130.789L473.403 133.961L476.03 132.842Z" fill="#BCBCBC"/>
<path d="M473.697 125.43L474.905 121.596L472.123 120.952L471.05 124.362L473.697 125.43Z" fill="#BCBCBC"/>
<path d="M477.289 118.538L480.855 116.681L479.343 114.26L476.171 115.912L477.289 118.538Z" fill="#BCBCBC"/>
<path d="M484.702 116.205L488.537 117.413L489.179 114.632L485.77 113.557L484.702 116.205Z" fill="#BCBCBC"/>
<path d="M491.594 119.797L493.45 123.362L495.873 121.85L494.222 118.68L491.594 119.797Z" fill="#BCBCBC"/>
<path d="M493.927 127.209L492.719 131.045L495.501 131.688L496.575 128.277L493.927 127.209Z" fill="#BCBCBC"/>
<path d="M490.337 134.102L486.77 135.958L488.281 138.381L491.453 136.729L490.337 134.102Z" fill="#BCBCBC"/>
<path d="M178.509 180.932C178.359 175.445 177.194 169.921 174.641 165.107C173.361 162.724 171.666 160.521 169.44 159.045C167.218 157.603 164.456 157.009 161.871 157.428C159.275 157.836 156.963 159.403 155.367 161.479C154.557 162.516 153.924 163.691 153.487 164.925C153.063 166.155 152.825 167.48 153.009 168.692C153.101 169.292 153.322 169.848 153.681 170.219C153.851 170.417 154.075 170.543 154.31 170.643C154.423 170.703 154.565 170.709 154.69 170.749C154.818 170.777 154.901 170.737 155.008 170.753C155.917 170.581 156.807 169.381 157.409 168.273C158.671 165.953 159.395 163.297 159.89 160.651C160.837 155.343 160.784 149.752 159.13 144.624C158.284 142.081 157.049 139.645 155.268 137.655C153.497 135.667 151.334 134.021 148.813 133.013C147.623 132.357 146.306 132.04 145.023 131.623C144.389 131.375 143.702 131.363 143.043 131.221C142.375 131.133 141.716 130.94 141.036 130.961C138.335 130.725 135.616 131.116 132.979 131.756C127.706 133.155 122.83 135.979 118.694 139.596C120.64 137.643 122.873 135.981 125.233 134.543C127.606 133.125 130.122 131.903 132.803 131.125C135.484 130.4 138.28 129.941 141.089 130.12C141.794 130.085 142.481 130.268 143.178 130.344C143.866 130.475 144.584 130.476 145.249 130.716C146.593 131.117 147.977 131.425 149.23 132.076C151.862 133.052 154.251 134.777 156.134 136.892C158.049 139.005 159.374 141.579 160.281 144.243C162.053 149.617 162.145 155.383 161.199 160.891C160.66 163.64 159.91 166.371 158.519 168.893C158.178 169.525 157.757 170.131 157.263 170.701C156.737 171.237 156.132 171.828 155.175 171.984C154.663 172.031 154.245 171.947 153.856 171.789C153.46 171.625 153.075 171.387 152.793 171.064C152.199 170.431 151.927 169.632 151.812 168.88C151.599 167.355 151.9 165.892 152.373 164.532C152.865 163.175 153.565 161.901 154.459 160.771C156.205 158.503 158.827 156.799 161.713 156.419C164.573 156.019 167.547 156.743 169.905 158.348C172.255 159.985 173.968 162.325 175.217 164.808C176.456 167.311 177.275 169.985 177.816 172.696C178.354 175.409 178.606 178.179 178.509 180.932Z" fill="#BCBCBC"/>
<path d="M119.789 147.995C118.828 151.94 114.857 154.355 110.916 153.395C106.972 152.433 104.557 148.461 105.517 144.519C106.477 140.577 110.449 138.161 114.393 139.123C118.333 140.083 120.749 144.055 119.789 147.995ZM127.934 149.98C129.989 141.543 124.815 133.033 116.378 130.979C107.937 128.921 99.4287 134.097 97.3724 142.533C95.3167 150.973 100.491 159.483 108.932 161.539C117.369 163.595 125.877 158.42 127.934 149.98Z" fill="#BCBCBC"/>
<path d="M112.022 161.62L106.146 160.188L105.458 164.425L110.684 165.7L112.022 161.62Z" fill="#BCBCBC"/>
<path d="M101.321 156.915L98.1787 151.748L94.6948 154.259L97.4896 158.855L101.321 156.915Z" fill="#BCBCBC"/>
<path d="M97.0801 146.021L98.512 140.145L94.2733 139.457L93 144.683L97.0801 146.021Z" fill="#BCBCBC"/>
<path d="M101.784 135.319L106.952 132.177L104.442 128.693L99.8457 131.488L101.784 135.319Z" fill="#BCBCBC"/>
<path d="M112.679 131.079L118.555 132.511L119.243 128.273L114.017 127L112.679 131.079Z" fill="#BCBCBC"/>
<path d="M123.38 135.784L126.523 140.951L130.007 138.44L127.211 133.845L123.38 135.784Z" fill="#BCBCBC"/>
<path d="M127.621 146.677L126.19 152.553L130.428 153.243L131.701 148.016L127.621 146.677Z" fill="#BCBCBC"/>
<path d="M122.916 157.38L117.749 160.521L120.259 164.005L124.855 161.211L122.916 157.38Z" fill="#BCBCBC"/>
<path d="M112.753 144.693C113.67 144.917 114.229 145.837 114.006 146.753C113.783 147.667 112.862 148.229 111.946 148.007C111.033 147.784 110.471 146.86 110.693 145.947C110.917 145.029 111.84 144.471 112.753 144.693ZM107.757 149.143L112.473 151.725L117.067 148.929L116.942 143.557L112.23 140.975L107.633 143.768L107.757 149.143Z" fill="#BCBCBC"/>
<path d="M510.784 440.756C507.196 446.219 505.181 452.36 505.181 458.853C505.181 481.781 530.359 500.372 561.397 500.372C592.436 500.372 617.589 481.781 617.589 458.853C617.589 435.927 592.436 417.336 561.397 417.336C546.347 417.336 532.703 421.697 522.623 428.824L503.257 423.9L510.784 440.756Z" fill="#BCBCBC"/>
<path d="M510.784 440.713L503.392 423.797L503.223 423.998L522.547 429.074L522.68 429.11L522.799 429.029C532.768 422.145 544.795 418.563 556.831 417.919C562.861 417.546 568.928 418.041 574.855 419.111C580.773 420.211 586.605 421.97 591.997 424.661C597.392 427.319 602.417 430.773 606.592 435.078C610.759 439.369 614.053 444.559 615.717 450.294C617.432 456.011 617.269 462.219 615.497 467.889C613.737 473.586 610.367 478.721 606.145 482.953C601.915 487.199 596.853 490.591 591.433 493.189C590.052 493.783 588.711 494.478 587.296 494.991L583.041 496.509L578.68 497.695C577.225 498.087 575.727 498.291 574.251 498.599C568.311 499.606 562.251 499.973 556.225 499.587C550.207 499.159 544.233 498.065 538.491 496.203C532.748 494.354 527.243 491.701 522.345 488.167C517.447 484.657 513.133 480.27 510.021 475.094C506.855 469.942 505.273 463.883 505.343 457.833C505.468 451.77 507.477 445.807 510.784 440.713ZM510.784 440.713C507.4 445.754 505.279 451.707 505.056 457.823C504.889 463.926 506.392 470.101 509.525 475.382C512.589 480.703 516.957 485.187 521.891 488.795C526.829 492.425 532.391 495.163 538.193 497.091C544 499.03 550.049 500.194 556.151 500.681C562.261 501.127 568.415 500.749 574.453 499.751C575.952 499.443 577.475 499.238 578.957 498.845L583.397 497.65L587.735 496.118C589.177 495.598 590.547 494.895 591.957 494.293C597.495 491.659 602.685 488.209 607.049 483.853C611.404 479.514 614.915 474.213 616.767 468.281C618.616 462.371 618.749 455.882 616.952 449.938C615.201 443.974 611.771 438.618 607.475 434.222C603.171 429.809 598.021 426.297 592.513 423.603C587.007 420.878 581.073 419.103 575.056 418.01C569.028 416.975 562.877 416.531 556.773 416.962C550.671 417.347 544.607 418.463 538.8 420.381C532.997 422.291 527.415 424.959 522.447 428.533L522.696 428.486L503.295 423.715L503 423.643L503.125 423.917L510.784 440.713Z" fill="#191510"/>
<path d="M532.479 465.652V468.739H519.9V450.623H532.249V453.709H523.421V458.073H531.051V460.931H523.421V465.652H532.479Z" fill="#191510"/>
<path d="M538.757 459.579H543.172C543.495 459.579 543.797 459.503 544.077 459.349C544.359 459.196 544.6 458.988 544.804 458.724C545.009 458.46 545.171 458.151 545.289 457.792C545.409 457.435 545.469 457.052 545.469 456.644C545.469 456.219 545.4 455.828 545.264 455.471C545.128 455.113 544.945 454.803 544.715 454.54C544.485 454.276 544.221 454.071 543.924 453.927C543.627 453.783 543.324 453.709 543.019 453.709H538.757V459.579ZM535.236 468.739V450.623H543.248C544.081 450.623 544.852 450.797 545.557 451.145C546.263 451.495 546.871 451.953 547.381 452.523C547.892 453.093 548.292 453.74 548.581 454.463C548.869 455.185 549.015 455.913 549.015 456.644C549.015 457.817 548.721 458.885 548.135 459.847C547.548 460.808 546.752 461.501 545.748 461.927L549.883 468.739H545.927L542.228 462.667H538.757V468.739H535.236Z" fill="#191510"/>
<path d="M555.725 459.579H560.139C560.463 459.579 560.764 459.503 561.044 459.349C561.325 459.196 561.568 458.988 561.772 458.724C561.976 458.46 562.137 458.151 562.256 457.792C562.376 457.435 562.436 457.052 562.436 456.644C562.436 456.219 562.367 455.828 562.232 455.471C562.095 455.113 561.913 454.803 561.683 454.54C561.453 454.276 561.189 454.071 560.892 453.927C560.593 453.783 560.292 453.709 559.985 453.709H555.725V459.579ZM552.203 468.739V450.623H560.216C561.049 450.623 561.819 450.797 562.525 451.145C563.231 451.495 563.839 451.953 564.349 452.523C564.859 453.093 565.259 453.74 565.548 454.463C565.837 455.185 565.981 455.913 565.981 456.644C565.981 457.817 565.689 458.885 565.101 459.847C564.516 460.808 563.72 461.501 562.716 461.927L566.851 468.739H562.895L559.195 462.667H555.725V468.739H552.203Z" fill="#191510"/>
<path d="M571.647 459.68C571.647 460.463 571.765 461.22 572.004 461.952C572.243 462.683 572.587 463.329 573.037 463.891C573.488 464.452 574.041 464.903 574.696 465.243C575.352 465.584 576.095 465.753 576.929 465.753C577.78 465.753 578.532 465.58 579.188 465.231C579.843 464.883 580.395 464.419 580.847 463.84C581.297 463.261 581.636 462.611 581.867 461.888C582.096 461.165 582.211 460.429 582.211 459.68C582.211 458.899 582.087 458.141 581.841 457.409C581.593 456.679 581.247 456.032 580.796 455.471C580.344 454.909 579.792 454.463 579.136 454.131C578.481 453.799 577.747 453.633 576.929 453.633C576.079 453.633 575.321 453.808 574.659 454.156C573.995 454.505 573.441 454.964 573 455.535C572.557 456.104 572.221 456.751 571.992 457.473C571.761 458.197 571.647 458.932 571.647 459.68ZM576.904 468.867C575.577 468.867 574.373 468.608 573.293 468.089C572.212 467.569 571.285 466.881 570.512 466.021C569.737 465.163 569.137 464.18 568.712 463.075C568.288 461.969 568.076 460.837 568.076 459.68C568.076 458.473 568.301 457.317 568.751 456.211C569.201 455.105 569.823 454.127 570.613 453.276C571.405 452.425 572.345 451.749 573.433 451.248C574.523 450.745 575.704 450.495 576.98 450.495C578.291 450.495 579.484 450.763 580.565 451.299C581.645 451.835 582.569 452.536 583.333 453.404C584.099 454.271 584.695 455.259 585.12 456.364C585.545 457.469 585.757 458.592 585.757 459.732C585.757 460.94 585.536 462.092 585.095 463.189C584.652 464.287 584.039 465.256 583.257 466.097C582.475 466.94 581.539 467.612 580.451 468.115C579.361 468.616 578.18 468.867 576.904 468.867Z" fill="#191510"/>
<path d="M591.984 459.579H596.399C596.721 459.579 597.024 459.503 597.303 459.349C597.584 459.196 597.827 458.988 598.031 458.724C598.236 458.46 598.397 458.151 598.516 457.792C598.636 457.435 598.695 457.052 598.695 456.644C598.695 456.219 598.627 455.828 598.491 455.471C598.355 455.113 598.172 454.803 597.941 454.54C597.712 454.276 597.448 454.071 597.151 453.927C596.853 453.783 596.551 453.709 596.245 453.709H591.984V459.579ZM588.463 468.739V450.623H596.475C597.308 450.623 598.079 450.797 598.784 451.145C599.489 451.495 600.097 451.953 600.608 452.523C601.119 453.093 601.519 453.74 601.807 454.463C602.096 455.185 602.241 455.913 602.241 456.644C602.241 457.817 601.948 458.885 601.36 459.847C600.775 460.808 599.979 461.501 598.975 461.927L603.109 468.739H599.153L595.455 462.667H591.984V468.739H588.463Z" fill="#191510"/>
</svg>
