<svg enable-background="new 0 0 512 512" height="512" viewBox="0 0 512 512" width="512" xmlns="http://www.w3.org/2000/svg"><g id="_x31_4_Theater"><g><g><g><path d="m377.027 335.507v12.91h-17.479c-18.861 0-34.214 15.354-34.214 34.214v12.911h-4.623v-12.911c0-18.86-15.354-34.214-34.214-34.214h-17.533v-12.91c0-13.017 10.573-23.589 23.589-23.589h60.939c12.962-.001 23.535 10.572 23.535 23.589z"/><path d="m243.089 335.507v12.91h-17.532c-18.861 0-34.215 15.354-34.215 34.214v12.911h-4.622v-12.911c0-18.86-15.354-34.214-34.214-34.214h-17.533v-12.91c0-13.017 10.573-23.589 23.589-23.589h60.938c13.017-.001 23.589 10.572 23.589 23.589z"/></g></g><g><g><path d="m176.094 382.631v12.911h-17.533c-18.86 0-34.214 15.301-34.214 34.162v34.214h-4.622v-34.214c0-18.861-15.354-34.162-34.215-34.162h-17.532v-12.911c0-13.016 10.573-23.589 23.589-23.589h60.938c13.017 0 23.589 10.573 23.589 23.589z"/><path d="m444.021 382.631v12.911h-17.479c-18.86 0-34.215 15.301-34.215 34.162v34.214h-4.675v-34.214c0-18.861-15.302-34.162-34.162-34.162h-17.532v-12.911c0-13.016 10.573-23.589 23.589-23.589h60.938c12.964 0 23.536 10.573 23.536 23.589z"/><path d="m310.084 382.631v12.911h-17.533c-18.86 0-34.214 15.301-34.214 34.162v34.214h-4.675v-34.214c0-18.861-15.302-34.162-34.163-34.162h-17.532v-12.911c0-13.016 10.573-23.589 23.589-23.589h60.938c12.965 0 23.59 10.573 23.59 23.589z"/></g></g><g><g><path d="m109.1 429.703v75.974c0 2.975-2.391 5.313-5.313 5.313h-97.491c-2.922 0-5.313-2.338-5.313-5.313v-75.974c0-12.963 10.573-23.536 23.589-23.536h60.938c13.017 0 23.59 10.573 23.59 23.536z"/><path d="m511.017 429.703v75.974c0 2.975-2.337 5.313-5.313 5.313h-97.438c-2.922 0-5.313-2.338-5.313-5.313v-75.974c0-12.963 10.573-23.536 23.589-23.536h60.938c12.964 0 23.537 10.573 23.537 23.536z"/><path d="m243.037 429.703v75.974c0 2.975-2.338 5.313-5.313 5.313h-97.438c-2.922 0-5.313-2.338-5.313-5.313v-75.974c0-12.963 10.573-23.536 23.589-23.536h60.938c12.964 0 23.537 10.573 23.537 23.536z"/><path d="m377.027 429.703v75.974c0 2.975-2.338 5.313-5.313 5.313h-97.438c-2.922 0-5.313-2.338-5.313-5.313v-75.974c0-12.963 10.573-23.536 23.589-23.536h60.939c12.963 0 23.536 10.573 23.536 23.536z"/></g></g><path d="m450.981 1.01h-389.962c-14.61 0-26.564 11.901-26.564 26.564v222.927c0 14.664 11.954 26.564 26.564 26.564h389.963c14.664 0 26.564-11.901 26.564-26.564v-222.927c0-14.664-11.901-26.564-26.565-26.564zm-194.981 208.688c-38.944 0-70.661-31.718-70.661-70.661 0-38.997 31.718-70.714 70.661-70.714 38.996 0 70.714 31.718 70.714 70.714 0 38.943-31.718 70.661-70.714 70.661z"/><path d="m288.727 130.643-39.581-26.937c-3.134-2.071-7.119-2.284-10.413-.531-3.347 1.753-5.419 5.153-5.419 8.925v53.872c0 3.719 2.072 7.172 5.419 8.926 1.488.796 3.081 1.169 4.728 1.169 1.966 0 3.985-.585 5.685-1.754l39.581-26.936c2.763-1.859 4.41-4.994 4.41-8.341 0-3.346-1.647-6.481-4.41-8.393z"/></g></g></svg>