<?xml version="1.0" encoding="UTF-8"?>
<svg id="Layer_2" data-name="Layer 2" width="250" height="100" xmlns="http://www.w3.org/2000/svg" xmlns:xlink="http://www.w3.org/1999/xlink" viewBox="0 0 286.88 62.74">
  <defs>
    <style>
      .cls-1 {
        fill: url(#linear-gradient-2);
      }

      .cls-2 {
        fill: #fff;
      }

      .cls-3 {
        fill: url(#linear-gradient-6);
      }

      .cls-4 {
        fill: url(#linear-gradient-11);
        stroke: url(#linear-gradient-12);
      }

      .cls-4, .cls-5 {
        stroke-miterlimit: 10;
      }

      .cls-6 {
        fill: url(#linear-gradient-5);
      }

      .cls-7 {
        fill: url(#linear-gradient-7);
      }

      .cls-8 {
        fill: url(#linear-gradient-9);
      }

      .cls-9 {
        fill: url(#linear-gradient-3);
      }

      .cls-10 {
        fill: url(#linear-gradient);
      }

      .cls-5 {
        fill: none;
        stroke: url(#linear-gradient-10);
      }

      .cls-11 {
        fill: url(#linear-gradient-4);
      }

      .cls-12 {
        fill: url(#linear-gradient-8);
      }
    </style>
    <linearGradient id="linear-gradient" x1="20.3" y1="-38.63" x2="12.65" y2="117.14" gradientUnits="userSpaceOnUse">
      <stop offset="0" stop-color="#fbf395"/>
      <stop offset=".13" stop-color="#f9e77d"/>
      <stop offset=".24" stop-color="#f8dc66"/>
      <stop offset=".27" stop-color="#e6c85b"/>
      <stop offset=".34" stop-color="#c5a045"/>
      <stop offset=".4" stop-color="#ad8435"/>
      <stop offset=".45" stop-color="#9e732c"/>
      <stop offset=".49" stop-color="#996d29"/>
      <stop offset=".52" stop-color="#9d722c"/>
      <stop offset=".56" stop-color="#a98136"/>
      <stop offset=".6" stop-color="#bd9b46"/>
      <stop offset=".64" stop-color="#d9bf5d"/>
      <stop offset=".69" stop-color="#fae878"/>
      <stop offset=".77" stop-color="#fbf5ad"/>
      <stop offset=".83" stop-color="#fae878"/>
      <stop offset="1" stop-color="#a46427"/>
    </linearGradient>
    <linearGradient id="linear-gradient-2" x1="58.68" y1="-36.74" x2="51.03" y2="119.03" xlink:href="#linear-gradient"/>
    <linearGradient id="linear-gradient-3" x1="99.1" y1="-34.76" x2="91.45" y2="121.01" xlink:href="#linear-gradient"/>
    <linearGradient id="linear-gradient-4" x1="139.15" y1="-32.79" x2="131.5" y2="122.98" xlink:href="#linear-gradient"/>
    <linearGradient id="linear-gradient-5" x1="175.61" y1="-31" x2="167.96" y2="124.77" xlink:href="#linear-gradient"/>
    <linearGradient id="linear-gradient-6" x1="208.38" y1="-29.39" x2="200.73" y2="126.37" xlink:href="#linear-gradient"/>
    <linearGradient id="linear-gradient-7" x1="238.64" y1="-27.91" x2="230.99" y2="127.86" xlink:href="#linear-gradient"/>
    <linearGradient id="linear-gradient-8" x1="270.86" y1="-26.33" x2="263.21" y2="129.44" xlink:href="#linear-gradient"/>
    <linearGradient id="linear-gradient-9" x1=".5" y1="57.78" x2="154.11" y2="57.78" xlink:href="#linear-gradient"/>
    <linearGradient id="linear-gradient-10" x1=".5" y1="57.78" x2="154.11" y2="57.78" xlink:href="#linear-gradient"/>
    <linearGradient id="linear-gradient-11" x1=".5" y1="57.78" x2="154.11" y2="57.78" xlink:href="#linear-gradient"/>
    <linearGradient id="linear-gradient-12" x1="0" y1="57.78" x2="154.61" y2="57.78" xlink:href="#linear-gradient"/>
  </defs>
  <g id="Layer_1-2" data-name="Layer 1">
    <g>
      <path class="cls-10" d="m19.72,0c7.7,0,13.34,2.79,13.34,2.79v9.98s-6.84-3.93-13.4-3.08c-7.24.86-10.32,5.59-10.32,11.4s3.08,10.72,10.38,11.18c7.7.57,14.08-3.59,13.86-3.42l-.17,10.15s-5.25,3.14-13.68,3.14C7.11,42.14.5,33.7.5,21.1S7.06,0,19.72,0Z"/>
      <path class="cls-1" d="m55.87,0c12.6,0,19.16,8.44,19.16,21.1s-6.56,21.04-19.16,21.04-19.22-8.44-19.22-21.04S43.21,0,55.87,0Zm0,32.79c6.84,0,9.86-5.93,9.86-11.69s-3.02-11.75-9.86-11.75-9.86,5.93-9.86,11.75,3.08,11.69,9.86,11.69Z"/>
      <path class="cls-9" d="m78.73,1.31h12.6l13.34,27.54V1.31h9.29v39.91h-12.03l-13.91-28.74v28.74h-9.29V1.31Z"/>
      <path class="cls-11" d="m118.87,1.31h12.6l13.34,27.54V1.31h9.29v39.91h-12.03l-13.91-28.74v28.74h-9.29V1.31Z"/>
      <path class="cls-6" d="m159.02,1.31h10.43c13.8,0,18.87,3.71,18.87,13.63s-5.13,13.8-18.87,13.8h-1.14v12.49h-9.29V1.31Zm9.47,19.56c6.44,0,10.66.06,10.61-5.87-.06-5.99-4.22-5.87-10.61-5.87h-.17v11.75h.17Z"/>
      <path class="cls-3" d="m192.55,1.31h9.35v32.05h17.33v7.87h-26.69V1.31Z"/>
      <path class="cls-7" d="m222.88,1.31h26.69v7.81h-17.33v8.15h16.25v7.87h-16.25v8.21h17.33v7.87h-26.69V1.31Z"/>
      <path class="cls-12" d="m268.5,30.96l-5.65,10.26h-10.61l10.95-19.96-10.95-19.96h10.66l5.59,10.26,5.65-10.26h10.61l-10.95,19.96,11,19.96h-10.66l-5.65-10.26Z"/>
    </g>
    <g>
      <g>
        <line class="cls-8" x1=".5" y1="57.78" x2="154.11" y2="57.78"/>
        <line class="cls-5" x1=".5" y1="57.78" x2="154.11" y2="57.78"/>
      </g>
      <rect class="cls-4" x=".5" y="57.69" width="153.61" height=".17"/>
    </g>
    <g>
      <path class="cls-2" d="m166.51,54.12c-.3-.33-.69-.61-1.19-.81-.5-.21-1.06-.31-1.68-.31-.94,0-1.62.18-2.04.52-.42.35-.64.83-.64,1.43,0,.32.06.57.17.78.11.2.29.38.53.52.24.15.55.28.92.38.37.11.81.22,1.31.33.56.12,1.06.25,1.51.39.44.14.82.33,1.14.55.32.22.56.49.72.81.17.32.25.72.25,1.19s-.09.9-.28,1.26-.45.65-.78.89-.73.41-1.2.52c-.46.11-.97.17-1.51.17-1.65,0-3.05-.51-4.21-1.52l.5-.84c.38.4.9.75,1.55,1.03.65.28,1.37.42,2.17.42.84,0,1.49-.15,1.97-.45.47-.3.71-.76.71-1.37,0-.33-.07-.6-.2-.82-.13-.22-.33-.41-.6-.58s-.6-.3-1-.42c-.4-.12-.86-.24-1.38-.35-.55-.13-1.03-.26-1.45-.4-.41-.14-.76-.31-1.04-.52-.28-.21-.49-.46-.64-.75-.14-.29-.21-.65-.21-1.07,0-.48.09-.91.27-1.29.18-.38.44-.69.77-.95.33-.25.72-.44,1.18-.58.46-.13.96-.2,1.51-.2.69,0,1.31.11,1.85.32.55.21,1.04.51,1.49.89l-.49.83Z"/>
      <path class="cls-2" d="m178.69,62.65v-8.62l-3.83,6.67h-.61l-3.84-6.67v8.62h-1.02v-10.49h1.05l4.11,7.18,4.11-7.18h1.05v10.49h-1.02Z"/>
      <path class="cls-2" d="m181.26,62.65l4.39-10.49h.84l4.39,10.49h-1.11l-1.36-3.28h-4.71l-1.34,3.28h-1.09Zm4.82-9.28l-2.16,5.19h4.26l-2.1-5.19Z"/>
      <path class="cls-2" d="m192.4,62.65v-10.49h4.42c.45,0,.87.1,1.26.29s.71.44.99.75c.28.31.49.66.64,1.06.15.39.23.79.23,1.2s-.06.75-.17,1.1c-.11.35-.27.67-.48.95-.21.28-.45.52-.74.71-.29.19-.61.32-.96.39l2.59,4.05h-1.17l-2.48-3.87h-3.1v3.87h-1.02Zm1.02-4.79h3.44c.31,0,.58-.07.83-.2.25-.13.47-.31.64-.54.18-.23.32-.48.41-.77.1-.29.15-.59.15-.9s-.06-.62-.17-.91c-.11-.29-.27-.54-.46-.76-.19-.22-.42-.39-.68-.52-.26-.13-.53-.19-.82-.19h-3.35v4.79Z"/>
      <path class="cls-2" d="m209.37,53.07h-3.74v9.58h-1.03v-9.58h-3.74v-.92h8.51v.92Z"/>
      <path class="cls-2" d="m221.43,53.07h-3.74v9.58h-1.03v-9.58h-3.74v-.92h8.51v.92Z"/>
      <path class="cls-2" d="m231.31,52.16v10.49h-1.03v-4.91h-6.22v4.91h-1.02v-10.49h1.02v4.67h6.22v-4.67h1.03Z"/>
      <path class="cls-2" d="m241.01,61.73v.92h-7.05v-10.49h6.92v.92h-5.9v3.78h5.14v.87h-5.14v4h6.03Z"/>
      <path class="cls-2" d="m241.91,62.65l4.39-10.49h.84l4.39,10.49h-1.11l-1.36-3.28h-4.71l-1.34,3.28h-1.09Zm4.82-9.28l-2.16,5.19h4.26l-2.1-5.19Z"/>
      <path class="cls-2" d="m259.46,53.07h-3.74v9.58h-1.03v-9.58h-3.74v-.92h8.51v.92Z"/>
      <path class="cls-2" d="m261.08,62.65v-10.49h4.42c.45,0,.87.1,1.26.29s.71.44.99.75c.28.31.49.66.64,1.06.15.39.23.79.23,1.2s-.06.75-.17,1.1c-.11.35-.27.67-.48.95-.21.28-.45.52-.74.71-.29.19-.61.32-.96.39l2.59,4.05h-1.17l-2.48-3.87h-3.1v3.87h-1.02Zm1.02-4.79h3.44c.31,0,.58-.07.83-.2.25-.13.47-.31.64-.54.18-.23.32-.48.41-.77.1-.29.15-.59.15-.9s-.06-.62-.17-.91c-.11-.29-.27-.54-.46-.76-.19-.22-.42-.39-.68-.52-.26-.13-.53-.19-.82-.19h-3.35v4.79Z"/>
      <path class="cls-2" d="m277.88,61.73v.92h-7.05v-10.49h6.92v.92h-5.9v3.78h5.14v.87h-5.14v4h6.03Z"/>
      <path class="cls-2" d="m285.87,54.12c-.3-.33-.69-.61-1.19-.81-.5-.21-1.06-.31-1.68-.31-.94,0-1.62.18-2.04.52-.42.35-.64.83-.64,1.43,0,.32.06.57.17.78.11.2.29.38.53.52.24.15.55.28.92.38.37.11.81.22,1.31.33.56.12,1.06.25,1.51.39.44.14.82.33,1.14.55.32.22.56.49.72.81.17.32.25.72.25,1.19s-.09.9-.28,1.26-.45.65-.78.89-.73.41-1.2.52c-.46.11-.97.17-1.51.17-1.65,0-3.05-.51-4.21-1.52l.5-.84c.38.4.9.75,1.55,1.03.65.28,1.37.42,2.17.42.84,0,1.49-.15,1.97-.45.47-.3.71-.76.71-1.37,0-.33-.07-.6-.2-.82-.13-.22-.33-.41-.6-.58s-.6-.3-1-.42c-.4-.12-.86-.24-1.38-.35-.55-.13-1.03-.26-1.45-.4-.41-.14-.76-.31-1.04-.52-.28-.21-.49-.46-.64-.75-.14-.29-.21-.65-.21-1.07,0-.48.09-.91.27-1.29.18-.38.44-.69.77-.95.33-.25.72-.44,1.18-.58.46-.13.96-.2,1.51-.2.69,0,1.31.11,1.85.32.55.21,1.04.51,1.49.89l-.49.83Z"/>
    </g>
  </g>
</svg>