<?xml version="1.0" encoding="iso-8859-1"?>
<!-- Generator: Adobe Illustrator 19.0.0, SVG Export Plug-In . SVG Version: 6.00 Build 0)  -->
<svg version="1.1" id="Capa_1" xmlns="http://www.w3.org/2000/svg" xmlns:xlink="http://www.w3.org/1999/xlink" x="0px" y="0px"
	 viewBox="0 0 512 512" style="enable-background:new 0 0 512 512;" xml:space="preserve">
<path style="fill:#9EAFC6;" d="M485.092,22.932v419.943c0,12.661-10.271,22.932-22.932,22.932H144.967
	c-12.661,0-22.932-10.271-22.932-22.932V22.932C122.035,10.271,132.306,0,144.967,0H462.16C474.821,0,485.092,10.271,485.092,22.932
	z"/>
<path style="fill:#8590A8;" d="M244.246,316.06c0,1.834-0.206,3.791-0.721,5.841c24.405,10.055,29.844,22.849,29.844,32.245v43.144
	c0,9.385-5.439,22.18-29.844,32.234c0.515,2.05,0.721,4.008,0.721,5.841v30.442h-99.279c-12.661,0-22.932-10.271-22.932-22.932
	V164.51c11.579-1.37,23.89-2.091,36.489-2.091c28.639,0,55.743,3.698,76.306,10.415c31.853,10.415,38.539,25.013,38.539,35.438
	v43.144c0,9.292-5.336,21.922-29.123,31.925L244.246,316.06L244.246,316.06z"/>
<path style="fill:#57D3D0;" d="M440.608,61.584v63.572c0,3.414-2.767,6.181-6.181,6.181H172.7c-3.414,0-6.181-2.767-6.181-6.181
	V61.584c0-3.414,2.767-6.181,6.181-6.181h261.728C437.841,55.403,440.608,58.171,440.608,61.584z"/>
<g>
	<polygon style="fill:#8CE5E1;" points="349.963,55.403 274.038,131.338 228.721,131.338 304.655,55.403 	"/>
	<polygon style="fill:#8CE5E1;" points="417.089,55.403 341.155,131.338 295.837,131.338 371.772,55.403 	"/>
</g>
<g>
	<path style="fill:#ED6294;" d="M202.007,210.394h-19.13c-8.151,0-14.759-6.608-14.759-14.759l0,0
		c0-8.151,6.608-14.759,14.759-14.759h19.13c8.151,0,14.759,6.608,14.759,14.759l0,0
		C216.765,203.786,210.158,210.394,202.007,210.394z"/>
	<path style="fill:#ED6294;" d="M290.851,195.631c0,4.079-1.659,7.767-4.327,10.446c-2.668,2.668-6.356,4.316-10.436,4.316h-19.13
		c-8.149,0-14.763-6.603-14.763-14.762c0-4.08,1.648-7.768,4.327-10.436c2.019-2.019,4.626-3.451,7.531-4.028
		c0.948-0.185,1.916-0.288,2.905-0.288h19.13C284.237,180.879,290.851,187.483,290.851,195.631z"/>
</g>
<path style="fill:#DC4173;" d="M273.369,208.272v2.122h-16.411c-8.149,0-14.763-6.603-14.763-14.762
	c0-4.08,1.648-7.768,4.327-10.436c2.019-2.019,4.626-3.451,7.531-4.028C269.567,190.182,273.369,200.411,273.369,208.272z"/>
<g>
	<path style="fill:#ED6294;" d="M350.168,210.394h-19.13c-8.151,0-14.759-6.608-14.759-14.759l0,0
		c0-8.151,6.608-14.759,14.759-14.759h19.13c8.151,0,14.759,6.608,14.759,14.759l0,0
		C364.927,203.786,358.319,210.394,350.168,210.394z"/>
	<path style="fill:#ED6294;" d="M424.248,210.394h-19.13c-8.151,0-14.759-6.608-14.759-14.759l0,0
		c0-8.151,6.608-14.759,14.759-14.759h19.13c8.151,0,14.759,6.608,14.759,14.759l0,0
		C439.007,203.786,432.399,210.394,424.248,210.394z"/>
</g>
<g>
	<path style="fill:#697491;" d="M202.007,285.522h-19.13c-8.151,0-14.759-6.608-14.759-14.759l0,0
		c0-8.151,6.608-14.759,14.759-14.759h19.13c8.151,0,14.759,6.608,14.759,14.759l0,0
		C216.765,278.914,210.158,285.522,202.007,285.522z"/>
	<path style="fill:#697491;" d="M290.851,270.763c0,4.069-1.659,7.767-4.327,10.436c-2.668,2.679-6.356,4.327-10.436,4.327h-19.13
		c-3.657,0-7.026-1.329-9.601-3.554c-3.163-2.709-5.161-6.727-5.161-11.208c0-4.069,1.648-7.768,4.327-10.436
		c2.668-2.678,6.367-4.327,10.436-4.327h19.13C284.237,256,290.851,262.614,290.851,270.763z"/>
</g>
<path style="fill:#576384;" d="M242.196,270.763c0-4.069,1.648-7.768,4.327-10.436c2.668-2.678,6.367-4.327,10.436-4.327h15.968
	c-1.586,8.138-7.891,17.802-25.569,25.971C244.194,279.262,242.196,275.244,242.196,270.763z"/>
<g>
	<path style="fill:#697491;" d="M350.168,285.522h-19.13c-8.151,0-14.759-6.608-14.759-14.759l0,0
		c0-8.151,6.608-14.759,14.759-14.759h19.13c8.151,0,14.759,6.608,14.759,14.759l0,0
		C364.927,278.914,358.319,285.522,350.168,285.522z"/>
	<path style="fill:#697491;" d="M424.248,285.522h-19.13c-8.151,0-14.759-6.608-14.759-14.759l0,0
		c0-8.151,6.608-14.759,14.759-14.759h19.13c8.151,0,14.759,6.608,14.759,14.759l0,0
		C439.007,278.914,432.399,285.522,424.248,285.522z"/>
	<path style="fill:#697491;" d="M202.007,345.891h-19.13c-8.151,0-14.759-6.608-14.759-14.759l0,0
		c0-8.151,6.608-14.759,14.759-14.759h19.13c8.151,0,14.759,6.608,14.759,14.759l0,0
		C216.765,339.283,210.158,345.891,202.007,345.891z"/>
	<path style="fill:#697491;" d="M290.851,331.131c0,4.069-1.659,7.768-4.327,10.436c-2.668,2.678-6.356,4.327-10.436,4.327h-19.13
		c-8.149,0-14.763-6.614-14.763-14.763c0-3.214,1.03-6.202,2.782-8.622c0.464-0.649,0.979-1.257,1.545-1.813
		c2.668-2.679,6.367-4.327,10.436-4.327h19.13C284.237,316.369,290.851,322.982,290.851,331.131z"/>
</g>
<path style="fill:#576384;" d="M242.196,331.131c0-3.214,1.03-6.202,2.782-8.622c16.771,7.211,24.147,15.741,26.929,23.385h-14.948
	C248.809,345.894,242.196,339.28,242.196,331.131z"/>
<g>
	<path style="fill:#697491;" d="M350.168,345.891h-19.13c-8.151,0-14.759-6.608-14.759-14.759l0,0
		c0-8.151,6.608-14.759,14.759-14.759h19.13c8.151,0,14.759,6.608,14.759,14.759l0,0
		C364.927,339.283,358.319,345.891,350.168,345.891z"/>
	<path style="fill:#697491;" d="M424.248,345.891h-19.13c-8.151,0-14.759-6.608-14.759-14.759l0,0
		c0-8.151,6.608-14.759,14.759-14.759h19.13c8.151,0,14.759,6.608,14.759,14.759l0,0
		C439.007,339.283,432.399,345.891,424.248,345.891z"/>
	<path style="fill:#697491;" d="M202.007,406.26h-19.13c-8.151,0-14.759-6.608-14.759-14.759l0,0
		c0-8.151,6.608-14.759,14.759-14.759h19.13c8.151,0,14.759,6.608,14.759,14.759l0,0C216.765,399.653,210.158,406.26,202.007,406.26
		z"/>
	<path style="fill:#697491;" d="M290.851,391.5c0,4.069-1.659,7.768-4.327,10.436c-2.668,2.679-6.356,4.327-10.436,4.327h-19.13
		c-8.149,0-14.763-6.614-14.763-14.762c0-4.069,1.648-7.757,4.327-10.436c2.668-2.668,6.367-4.316,10.436-4.316h19.13
		C284.237,376.747,290.851,383.351,290.851,391.5z"/>
</g>
<path style="fill:#576384;" d="M256.958,376.747h16.411v20.542c0,2.751-0.464,5.79-1.741,8.973h-14.67
	c-8.149,0-14.763-6.614-14.763-14.762c0-4.069,1.648-7.757,4.327-10.436C249.191,378.396,252.889,376.747,256.958,376.747z"/>
<g>
	<path style="fill:#697491;" d="M350.168,406.26h-19.13c-8.151,0-14.759-6.608-14.759-14.759l0,0
		c0-8.151,6.608-14.759,14.759-14.759h19.13c8.151,0,14.759,6.608,14.759,14.759l0,0C364.927,399.653,358.319,406.26,350.168,406.26
		z"/>
	<path style="fill:#697491;" d="M424.248,406.26h-19.13c-8.151,0-14.759-6.608-14.759-14.759l0,0
		c0-8.151,6.608-14.759,14.759-14.759h19.13c8.151,0,14.759,6.608,14.759,14.759l0,0C439.007,399.653,432.399,406.26,424.248,406.26
		z"/>
</g>
<path style="fill:#EFAE2E;" d="M26.909,435.369v43.142c0,18.495,45.886,33.489,102.489,33.489s102.489-14.993,102.489-33.489
	v-43.142H26.909z"/>
<path style="fill:#FFE28F;" d="M231.883,435.365c0,18.502-45.884,33.491-102.482,33.491c-56.608,0-102.493-14.989-102.493-33.491
	c0-8.066,8.746-15.473,23.313-21.253c18.79-7.469,47.285-12.228,79.18-12.228c54.857,0,99.66,14.083,102.349,31.791
	C231.842,434.232,231.883,434.798,231.883,435.365z"/>
<path style="fill:#FFD243;" d="M231.75,433.675c-20.15,6.109-45.998,9.457-73.225,9.457c-28.649,0-55.753-3.698-76.316-10.415
	c-16.679-5.45-26.455-12.053-31.987-18.605c18.79-7.469,47.285-12.228,79.18-12.228C184.258,401.884,229.061,415.967,231.75,433.675
	z"/>
<path style="fill:#EFAE2E;" d="M56.033,354.142v43.142c0,18.495,45.886,33.489,102.489,33.489s102.489-14.993,102.489-33.489
	v-43.142H56.033z"/>
<path style="fill:#FFE28F;" d="M261.007,354.145c0,18.492-45.884,33.481-102.482,33.481c-56.608,0-102.493-14.989-102.493-33.481
	c0-0.567,0.041-1.133,0.134-1.69c2.689-17.719,47.491-31.802,102.359-31.802c31.894,0,60.379,4.759,79.169,12.228
	C252.26,338.662,261.007,346.069,261.007,354.145z"/>
<path style="fill:#FFD243;" d="M237.694,332.882c-5.522,6.552-15.298,13.155-31.987,18.605
	c-20.562,6.717-47.667,10.426-76.306,10.426c-27.238,0-53.085-3.348-73.236-9.457c2.689-17.719,47.491-31.802,102.359-31.802
	C190.419,320.654,218.903,325.414,237.694,332.882z"/>
<path style="fill:#EFAE2E;" d="M26.909,272.915v43.142c0,18.495,45.886,33.489,102.489,33.489s102.489-14.993,102.489-33.489
	v-43.142H26.909z"/>
<path style="fill:#FFE28F;" d="M231.883,272.915c0,7.304-7.139,14.052-19.264,19.553c-18.605,8.437-48.944,13.938-83.218,13.938
	c-56.608,0-102.493-14.999-102.493-33.491c0-6.82,6.243-13.166,16.957-18.45c18.337-9.066,49.799-15.041,85.536-15.041
	C185.999,239.424,231.883,254.424,231.883,272.915z"/>
<path style="fill:#FFD243;" d="M231.883,272.915c0,7.304-7.139,14.052-19.264,19.553c-16.328,3.121-34.861,4.79-54.095,4.79
	c-28.649,0-55.743-3.698-76.316-10.415c-28.845-9.426-37.056-22.293-38.343-32.379c18.337-9.066,49.799-15.041,85.536-15.041
	C185.999,239.424,231.883,254.424,231.883,272.915z"/>
<path style="fill:#EFAE2E;" d="M56.033,208.27v43.142c0,18.495,45.886,33.489,102.489,33.489s102.489-14.993,102.489-33.489V208.27
	H56.033z"/>
<ellipse style="fill:#FFE28F;" cx="158.52" cy="208.27" rx="102.49" ry="33.489"/>
<g>
	<path style="fill:#9EAFC6;" d="M89.288,160.27H63.165c-4.267,0-7.726-3.459-7.726-7.726s3.459-7.726,7.726-7.726h26.123
		c4.267,0,7.726,3.459,7.726,7.726S93.555,160.27,89.288,160.27z"/>
	<path style="fill:#9EAFC6;" d="M89.288,136.327H63.165c-4.267,0-7.726-3.459-7.726-7.726s3.459-7.726,7.726-7.726h26.123
		c4.267,0,7.726,3.459,7.726,7.726C97.015,132.868,93.555,136.327,89.288,136.327z"/>
</g>
<path style="fill:#FFD243;" d="M89.34,109.766h-0.103c-4.267,0-7.726-3.459-7.726-7.726s3.459-7.726,7.726-7.726
	s7.778,3.459,7.778,7.726C97.015,106.306,93.607,109.766,89.34,109.766z"/>
<g>
</g>
<g>
</g>
<g>
</g>
<g>
</g>
<g>
</g>
<g>
</g>
<g>
</g>
<g>
</g>
<g>
</g>
<g>
</g>
<g>
</g>
<g>
</g>
<g>
</g>
<g>
</g>
<g>
</g>
</svg>
