<svg xmlns="http://www.w3.org/2000/svg" xmlns:xlink="http://www.w3.org/1999/xlink" width="18" height="18" viewBox="0 0 18 18">
  <defs>
    <clipPath id="clip-path">
      <rect id="Rectangle_80" data-name="Rectangle 80" width="18" height="18" transform="translate(1075 27)" fill="#fff" stroke="#707070" stroke-width="1"/>
    </clipPath>
  </defs>
  <g id="Mask_Group_19" data-name="Mask Group 19" transform="translate(-1075 -27)" clip-path="url(#clip-path)">
    <g id="__TEMP__SVG__" transform="translate(1074.061 26.017)">
      <path id="Path_45" data-name="Path 45" d="M18,15.411a7.974,7.974,0,0,1-1.39-1.623,6.994,6.994,0,0,1-.748-2.664V8.389a5.986,5.986,0,0,0-5.227-5.953V1.722a.739.739,0,1,0-1.479,0v.725A5.986,5.986,0,0,0,3.993,8.389v2.736a6.994,6.994,0,0,1-.748,2.664,7.974,7.974,0,0,1-1.368,1.623.554.554,0,0,0-.188.415v.753a.554.554,0,0,0,.554.554H17.637a.554.554,0,0,0,.554-.554v-.753A.554.554,0,0,0,18,15.411Zm-15.162.615a8.954,8.954,0,0,0,1.351-1.661,7.885,7.885,0,0,0,.914-3.239V8.389a4.84,4.84,0,1,1,9.674,0v2.736a7.885,7.885,0,0,0,.914,3.239,8.954,8.954,0,0,0,1.351,1.661Z" fill="#7a808b"/>
      <path id="Path_46" data-name="Path 46" d="M9.968,18.983A1.479,1.479,0,0,0,11.4,17.72H8.484a1.479,1.479,0,0,0,1.484,1.263Z" fill="#7a808b"/>
    </g>
  </g>
</svg>
