<svg xmlns="http://www.w3.org/2000/svg" version="1.1" xmlns:xlink="http://www.w3.org/1999/xlink"
    width="512" height="512" x="0" y="0" viewBox="0 0 32 32"><g><g fill="#000" fill-rule="evenodd" clip-rule="evenodd"><path d="M26.06 4.94a1.5 1.5 0 0 1 0 2.12L17.122 16l8.94 8.94a1.5 1.5 0 0 1-2.122 2.12l-10-10a1.5 1.5 0 0 1 0-2.12l10-10a1.5 1.5 0 0 1 2.122 0z" fill="#ffffff" opacity="1" data-original="#000000"></path><path d="M16.06 4.94a1.5 1.5 0 0 1 0 2.12L7.122 16l8.94 8.94a1.5 1.5 0 0 1-2.122 2.12l-10-10a1.5 1.5 0 0 1 0-2.12l10-10a1.5 1.5 0 0 1 2.122 0z" fill="#ffffff" opacity="1" data-original="#000000"></path></g></g></svg>