<svg xmlns="http://www.w3.org/2000/svg" xmlns:xlink="http://www.w3.org/1999/xlink" width="18" height="18" viewBox="0 0 18 18">
  <defs>
    <clipPath id="clip-path">
      <rect id="Rectangle_75" data-name="Rectangle 75" width="18" height="18" transform="translate(20 106)" fill="#fff" stroke="#707070" stroke-width="1"/>
    </clipPath>
  </defs>
  <g id="Mask_Group_13" data-name="Mask Group 13" transform="translate(-20 -106)" clip-path="url(#clip-path)">
    <g id="__TEMP__SVG__" transform="translate(18.875 104.875)">
      <path id="Path_18" data-name="Path 18" d="M18,16.875H2.25A1.125,1.125,0,0,1,1.125,15.75V4.5A1.125,1.125,0,0,1,2.25,3.375H18A1.125,1.125,0,0,1,19.125,4.5V15.75A1.125,1.125,0,0,1,18,16.875ZM2.25,4.5V15.75H18V4.5Z" fill="#fff"/>
      <path id="Path_19" data-name="Path 19" d="M5.063,14.231a.45.45,0,0,1-.45-.45V6.469a.45.45,0,1,1,.9,0v7.312A.45.45,0,0,1,5.063,14.231Z" fill="#fff"/>
      <path id="Path_20" data-name="Path 20" d="M8.392,14.231a.45.45,0,0,1-.45-.45V6.469a.45.45,0,1,1,.9,0v7.312A.45.45,0,0,1,8.392,14.231Z" fill="#fff"/>
      <path id="Path_21" data-name="Path 21" d="M11.813,14.231a.45.45,0,0,1-.45-.45V6.469a.45.45,0,1,1,.9,0v7.312a.45.45,0,0,1-.45.45Z" fill="#fff"/>
      <path id="Path_22" data-name="Path 22" d="M15.188,14.231a.45.45,0,0,1-.45-.45V6.469a.45.45,0,1,1,.9,0v7.312a.45.45,0,0,1-.45.45Z" fill="#fff"/>
    </g>
  </g>
</svg>
