<svg xmlns="http://www.w3.org/2000/svg" xmlns:xlink="http://www.w3.org/1999/xlink" width="18" height="18" viewBox="0 0 18 18">
  <defs>
    <clipPath id="clip-path">
      <rect id="Rectangle_75" data-name="Rectangle 75" width="18" height="18" transform="translate(20 106)" fill="#fff" stroke="#707070" stroke-width="1"/>
    </clipPath>
  </defs>
  <g id="Mask_Group_16" data-name="Mask Group 16" transform="translate(-20 -106)" clip-path="url(#clip-path)">
    <g id="__TEMP__SVG__" transform="translate(18.071 104.715)">
      <path id="Path_36" data-name="Path 36" d="M15.428,19.285a3.857,3.857,0,1,1,3.857-3.857A3.857,3.857,0,0,1,15.428,19.285Zm0-6.428A2.571,2.571,0,1,0,18,15.428a2.571,2.571,0,0,0-2.571-2.571Z" fill="#fff"/>
      <path id="Path_37" data-name="Path 37" d="M5.143,14.143h5.143v1.286H5.143Z" fill="#fff"/>
      <path id="Path_38" data-name="Path 38" d="M5.143,10.286h6.428v1.286H5.143Z" fill="#fff"/>
      <path id="Path_39" data-name="Path 39" d="M10.286,18H3.857V2.571H9V6.428a1.29,1.29,0,0,0,1.286,1.286h3.857V9.643h1.286V6.428a.585.585,0,0,0-.193-.45l-4.5-4.5a.584.584,0,0,0-.45-.193H3.857A1.29,1.29,0,0,0,2.571,2.571V18a1.29,1.29,0,0,0,1.286,1.286h6.428Zm0-15.171,3.6,3.6h-3.6Z" fill="#fff"/>
    </g>
  </g>
</svg>
