<svg xmlns="http://www.w3.org/2000/svg" xmlns:xlink="http://www.w3.org/1999/xlink" width="18" height="18" viewBox="0 0 18 18">
  <defs>
    <clipPath id="clip-path">
      <rect id="Rectangle_77" data-name="Rectangle 77" width="18" height="18" transform="translate(20 106)" fill="#fff" stroke="#707070" stroke-width="1"/>
    </clipPath>
  </defs>
  <g id="Mask_Group_18" data-name="Mask Group 18" transform="translate(-20 -106)" clip-path="url(#clip-path)">
    <g id="__TEMP__SVG__" transform="translate(20 105.957)">
      <g id="Group_208" data-name="Group 208">
        <path id="Path_43" data-name="Path 43" d="M9.209,1.252a.563.563,0,0,0-.418,0L2.077,3.938,9,6.706l6.923-2.769Zm7.666,3.517L9.563,7.694v8.912l7.313-2.925V4.77ZM8.438,16.607V7.693L1.125,4.769v8.913l7.313,2.925ZM8.373.207a1.687,1.687,0,0,1,1.253,0l8.02,3.208A.563.563,0,0,1,18,3.938v9.745a1.125,1.125,0,0,1-.708,1.044L9.209,17.96a.563.563,0,0,1-.419,0L.709,14.726A1.125,1.125,0,0,1,0,13.682V3.938a.562.562,0,0,1,.353-.522Z" fill="#fff"/>
      </g>
    </g>
  </g>
</svg>
