<svg xmlns="http://www.w3.org/2000/svg" xmlns:xlink="http://www.w3.org/1999/xlink" width="18" height="18" viewBox="0 0 18 18">
  <defs>
    <clipPath id="clip-path">
      <rect id="Rectangle_75" data-name="Rectangle 75" width="18" height="18" transform="translate(20 106)" fill="#fff" stroke="#707070" stroke-width="1"/>
    </clipPath>
  </defs>
  <g id="Mask_Group_17" data-name="Mask Group 17" transform="translate(-20 -106)" clip-path="url(#clip-path)">
    <g id="__TEMP__SVG__" transform="translate(19.407 105.4)">
      <path id="Path_40" data-name="Path 40" d="M6,3.6V4.8H17.388V7.172l-1.33,4.222H5.618L4.119.6H.6V1.8H3.075l1.5,10.794H16.937l1.65-5.236V3.6Z" fill="#fff"/>
      <path id="Path_41" data-name="Path 41" d="M6.632,13.8a2.4,2.4,0,1,0,2.4,2.4,2.4,2.4,0,0,0-2.4-2.4Zm0,3.6a1.2,1.2,0,1,1,1.2-1.2,1.2,1.2,0,0,1-1.2,1.2Z" fill="#fff"/>
      <path id="Path_42" data-name="Path 42" d="M15.026,13.8a2.4,2.4,0,1,0,2.4,2.4,2.4,2.4,0,0,0-2.4-2.4Zm0,3.6a1.2,1.2,0,1,1,1.2-1.2,1.2,1.2,0,0,1-1.2,1.2Z" fill="#fff"/>
    </g>
  </g>
</svg>
