<svg xmlns="http://www.w3.org/2000/svg" xmlns:xlink="http://www.w3.org/1999/xlink" width="18" height="18" viewBox="0 0 18 18">
  <defs>
    <clipPath id="clip-path">
      <rect id="Rectangle_75" data-name="Rectangle 75" width="18" height="18" transform="translate(20 106)" fill="#fff" stroke="#707070" stroke-width="1"/>
    </clipPath>
  </defs>
  <g id="Mask_Group_15" data-name="Mask Group 15" transform="translate(-20 -106)" clip-path="url(#clip-path)">
    <g id="__TEMP__SVG__" transform="translate(19.433 105.463)">
      <path id="Path_28" data-name="Path 28" d="M9.259.537.6,4.707v2.17H18.537V4.7Zm8.081,5.144H1.794V5.458l7.483-3.6L17.341,5.47Z" fill="#fff"/>
      <path id="Path_29" data-name="Path 29" d="M1.794,15.248H17.341v1.2H1.794Z" fill="#fff"/>
      <path id="Path_30" data-name="Path 30" d="M.6,17.341H18.537v1.2H.6Z" fill="#fff"/>
      <path id="Path_31" data-name="Path 31" d="M2.093,8.072h1.2v5.98h-1.2Z" fill="#fff"/>
      <path id="Path_32" data-name="Path 32" d="M15.846,8.072h1.2v5.98h-1.2Z" fill="#fff"/>
      <path id="Path_33" data-name="Path 33" d="M12.258,8.072h1.2v5.98h-1.2Z" fill="#fff"/>
      <path id="Path_34" data-name="Path 34" d="M5.681,8.072h1.2v5.98h-1.2Z" fill="#fff"/>
      <path id="Path_35" data-name="Path 35" d="M8.969,8.072h1.2v5.98h-1.2Z" fill="#fff"/>
    </g>
  </g>
</svg>
