<svg id="Capa_1" enable-background="new 0 0 512 512" viewBox="0 0 512 512" xmlns="http://www.w3.org/2000/svg"><g><g><g><g><g><g><path d="m8.744 14.923v482.154h151.157l41.909-239.048-41.909-243.106z" fill="#476495"/><path d="m159.901 14.923h151.355v482.154h-151.355z" fill="#3b4c7a"/></g><g><path d="m30 482v-452h129.901l26.225-15.077-26.225-14.923h-159.901v512h159.901l26.225-14.923-26.225-15.077z" fill="#f3f5f9"/><path d="m118.19 420v30h41.711l15.099-15-15.099-15z" fill="#3b4c7a"/></g><path d="m319.803 0h-159.902v30h130.099v452h-130.099v30h159.902z" fill="#e1e6f0"/><path d="m159.901 420h41.908v30h-41.908z" fill="#393057"/></g></g></g><g><path d="m150.672 180.628c-9.022 0-16.362-7.34-16.362-16.362v-.444c0-9.022 7.34-16.362 16.362-16.362h9.23l7.281-30.054-7.281-27.82h-15.188v28.27c-22.758 2.935-40.403 22.422-40.403 45.966v.444c0 25.564 20.798 46.362 46.362 46.362h9.23l12.608-16.349-12.608-13.651z" fill="#ffe966"/><path d="m150.672 243.352c-9.022 0-16.362-7.34-16.362-16.362v-1.328h-30v1.328c0 23.544 17.645 43.031 40.403 45.966v28.27h15.188l7.281-29.859-7.281-28.014h-9.229z" fill="#ffe966"/><g fill="#fecc45"><path d="m174.713 272.956c22.758-2.935 40.404-22.422 40.404-45.966 0-25.564-20.798-46.362-46.362-46.362h-8.854v30h8.854c9.022 0 16.362 7.34 16.362 16.362s-7.34 16.362-16.362 16.362h-8.854v57.874h14.812z"/><path d="m168.755 147.461c9.022 0 16.362 7.34 16.362 16.362v1.013h30v-1.013c0-23.544-17.646-43.031-40.404-45.966v-28.27h-14.812v57.874z"/></g></g></g><g><path d="m436.77 170.427 21.212 21.213 54.018-54.018-54.018-54.019-21.212 21.213 17.805 17.806h-96.665v30h96.665z" fill="#ff6f43"/><path d="m436.365 213.194-21.213-21.213-54.018 54.019 54.018 54.019 21.213-21.213-17.805-17.806h93.44v-30h-93.44z" fill="#ffa200"/></g><g><g><path d="m228.285 420.158c0 50.642 41.055 91.842 91.517 91.842l18.454-85.291-18.454-98.068c-50.462 0-91.517 41.054-91.517 91.517z" fill="#a0d584"/><path d="m319.803 328.641v183.359c50.463 0 91.517-41.2 91.517-91.842 0-50.463-41.054-91.517-91.517-91.517z" fill="#1eb989"/></g><g><path d="m308.971 419.696-18.61-18.609-21.212 21.213 39.822 39.823 10.832-10.832 5.981-20.711-5.981-21.715z" fill="#dce487"/><path d="m353.042 375.626-33.239 33.239v42.426l54.452-54.452z" fill="#a0d584"/></g></g></g><g/><g/><g/><g/><g/><g/><g/><g/><g/><g/><g/><g/><g/><g/><g/></svg>